<?xml version="1.0" standalone="no"?>
<!DOCTYPE svg PUBLIC "-//W3C//DTD SVG 1.1//EN" "http://www.w3.org/Graphics/SVG/1.1/DTD/svg11.dtd">
<svg xmlns="http://www.w3.org/2000/svg" xmlns:xlink="http://www.w3.org/1999/xlink" width="810" zoomAndPan="magnify" viewBox="0 0 810 1012.49997" height="1012.5" preserveAspectRatio="xMidYMid meet" version="1.0"><path fill="#8d876b" d="M 474.445312 475.476562 C 476.097656 475.882812 476.914062 476.097656 477.964844 476.621094 C 492.675781 484.027344 493.335938 522.738281 474.601562 544.796875 C 471.140625 548.855469 461.792969 559.875 448.535156 559.429688 C 437.109375 559.039062 429.585938 550.390625 428.769531 549.421875 C 414.933594 533 423.757812 504.375 436.058594 490.089844 C 437.265625 488.691406 439.597656 486.144531 443.074219 483.558594 C 447.566406 480.21875 460.433594 471.976562 474.464844 475.496094 Z M 460.296875 484.785156 C 434.503906 481.734375 425.894531 557.503906 457.496094 548.835938 C 475.398438 539.820312 485.679688 492.867188 460.9375 484.902344 L 460.296875 484.765625 Z M 460.296875 484.785156 " fill-opacity="1" fill-rule="nonzero"/><path fill="#8d876b" d="M 485.96875 477.265625 C 492.96875 480.78125 491.121094 493.0625 493.140625 516.152344 C 495.261719 540.324219 498.292969 545.339844 501.886719 546.214844 C 503.636719 546.640625 505.367188 546.058594 506.535156 545.515625 C 507.117188 545.242188 508.128906 544.699219 509.351562 544.914062 C 509.351562 544.914062 509.992188 545.007812 510.539062 545.339844 C 512.324219 546.410156 513.121094 551.09375 511.21875 554.570312 C 510.011719 556.785156 507.601562 558.691406 504.863281 559.195312 C 497.863281 560.476562 489.953125 552.589844 486.261719 545.320312 C 483.871094 540.597656 483.695312 537.082031 482.6875 527.578125 C 480.957031 511.136719 479.652344 507.289062 479.011719 498.640625 C 477.75 481.519531 479.128906 477.925781 481.285156 476.835938 C 483.191406 475.882812 485.445312 477.011719 485.988281 477.285156 Z M 485.96875 477.265625 " fill-opacity="1" fill-rule="nonzero"/><path fill="#8d876b" d="M 219.234375 479.1875 C 279.132812 456.390625 271.808594 533.175781 231.417969 553.367188 C 215.773438 562.675781 192.179688 561.683594 181.488281 545.84375 C 165.84375 519.375 194.003906 487.855469 218.589844 479.460938 L 219.253906 479.207031 Z M 233.1875 483.910156 C 206.675781 473.492188 176.164062 553.910156 212.121094 553.113281 C 233.65625 548.175781 257.8125 499.710938 233.828125 484.242188 L 233.1875 483.929688 Z M 233.1875 483.910156 " fill-opacity="1" fill-rule="nonzero"/><path fill="#8d876b" d="M 282.089844 487.117188 C 307.433594 460.941406 316.160156 487.058594 320.824219 480.703125 C 324.128906 464.652344 324.246094 447.570312 327.976562 431.441406 C 329.066406 424.753906 331.921875 410.414062 335.363281 426.289062 C 336.46875 433.285156 336.371094 440.808594 336.820312 447.878906 C 338.257812 472.949219 353.066406 545.941406 321.933594 556.554688 C 317.171875 556.6875 312.542969 553.269531 307.839844 555.132812 C 306.675781 555.523438 305.316406 556.046875 304.167969 556.515625 C 281 566.425781 260.863281 548.585938 263.15625 525.789062 C 264.128906 511.601562 271.535156 497.707031 281.449219 487.777344 L 282.089844 487.136719 Z M 295.304688 485.96875 C 269.398438 487.464844 274.917969 563.023438 304.535156 549.226562 C 320.589844 537.429688 322.011719 489.488281 295.984375 485.96875 L 295.285156 485.96875 Z M 295.304688 485.96875 " fill-opacity="1" fill-rule="nonzero"/><path fill="#8d876b" d="M 577.183594 559.078125 C 572.789062 560.207031 568.535156 555.019531 566.394531 551.34375 C 556.347656 534.84375 564.472656 514.632812 569.972656 497.6875 C 569.449219 496.949219 569.15625 496.210938 569.351562 495.609375 C 570.265625 492.964844 580.953125 492.832031 582.996094 496.949219 C 584.179688 499.339844 579.882812 501.417969 579.921875 506.394531 C 580 517.492188 579.261719 528.375 579.476562 539.800781 C 579.046875 545.882812 581.652344 553.910156 577.707031 558.789062 Z M 577.183594 559.078125 " fill-opacity="1" fill-rule="nonzero"/><path fill="#8d876b" d="M 420.355469 536.246094 C 419.734375 549.285156 392.890625 559.527344 379.480469 559.039062 C 352.195312 561.410156 334 542.152344 349.375 514.632812 C 360.84375 489.097656 394.117188 461.777344 419.597656 482.160156 C 430.074219 492.207031 425.679688 509.445312 410.539062 510.785156 C 392.367188 512.730469 372.621094 509.386719 359.289062 524.195312 C 346.90625 537.78125 363.855469 543.570312 375.90625 541.859375 C 388.832031 540.578125 402.300781 531.851562 415.339844 533.40625 C 417.109375 533.71875 419.265625 534.359375 420.101562 535.757812 L 420.316406 536.246094 Z M 373.863281 505.832031 C 381.367188 506.824219 390.890625 506.257812 398.179688 504.179688 C 403.972656 501.324219 407.507812 493.644531 406.1875 487.3125 C 399.460938 468.070312 376.703125 495.996094 373.574219 505.636719 L 373.882812 505.8125 Z M 373.863281 505.832031 " fill-opacity="1" fill-rule="nonzero"/><path fill="#8d876b" d="M 668.726562 536.285156 C 668.085938 549.265625 641.359375 559.507812 628.027344 559.039062 C 600.855469 561.429688 582.78125 542.25 598.117188 514.808594 C 609.5625 489.351562 642.683594 462.105469 668.046875 482.394531 C 678.464844 492.402344 674.070312 509.582031 659.007812 510.921875 C 640.914062 512.886719 621.28125 509.5625 607.988281 524.332031 C 595.667969 537.878906 612.515625 543.628906 624.507812 541.917969 C 637.375 540.636719 650.785156 531.910156 663.769531 533.464844 C 665.539062 533.777344 667.675781 534.417969 668.511719 535.796875 Z M 622.449219 506.648438 C 630.027344 507.636719 639.648438 507.074219 646.996094 504.996094 C 652.847656 502.121094 656.402344 494.367188 655.082031 487.972656 C 648.277344 468.539062 625.304688 496.738281 622.136719 506.472656 L 622.449219 506.667969 Z M 622.449219 506.648438 " fill-opacity="1" fill-rule="nonzero"/><path fill="#c5baa8" d="M 171.363281 559.253906 C 171.578125 559.195312 172.316406 558.847656 172.839844 558.128906 C 173.441406 557.3125 173.480469 556.417969 173.5 556.085938 C 173.675781 552.472656 169.847656 526.507812 169.339844 523.03125 C 168.894531 519.941406 168.523438 516.265625 167.398438 509.289062 C 166.816406 505.65625 166.503906 503.828125 166.210938 502.507812 C 165.453125 499.203125 164.09375 491.878906 159.3125 485.445312 C 155.542969 480.375 153.65625 479.148438 153.65625 479.148438 C 152.21875 477.945312 151.226562 477.339844 150.644531 475.863281 C 149.984375 474.214844 149.925781 471.667969 151.226562 470.035156 C 151.226562 470.035156 151.265625 469.996094 151.304688 469.957031 C 155.582031 464.808594 166.425781 467.3125 171.363281 468.441406 C 179.429688 470.269531 179.234375 471.9375 192.644531 476.136719 C 198.242188 477.886719 203.355469 479.1875 208.40625 477.1875 C 209.710938 476.660156 212.21875 475.632812 213.617188 473.007812 C 214.800781 470.773438 214.800781 468.03125 213.945312 466.089844 C 212.566406 462.921875 208.855469 461.582031 201.332031 460.066406 C 191.050781 457.984375 183.414062 456.449219 171.90625 457.382812 C 165.125 457.925781 160.574219 458.355469 155.210938 461.152344 C 152.683594 462.476562 147.882812 465.039062 144.617188 470.5 C 141.859375 475.105469 141.605469 479.460938 141.355469 483.25 C 140.964844 489.644531 142.246094 494.386719 144.347656 502.214844 C 145.960938 508.164062 147.769531 512.828125 148.894531 515.703125 C 150.234375 519.144531 150.957031 520.503906 152.859375 524.875 C 154.648438 528.957031 157.273438 535.078125 161.390625 545.007812 C 161.390625 545.007812 168.5625 560.148438 171.363281 559.3125 Z M 171.363281 559.253906 " fill-opacity="1" fill-rule="nonzero"/><path fill="#c5baa8" d="M 183.625 437.640625 C 181.195312 437.230469 178.046875 436.726562 174.355469 437.25 C 171.617188 437.640625 168.953125 438.027344 167.574219 440.011719 C 166.503906 441.546875 166.484375 443.664062 167.515625 445.453125 C 167.960938 446.230469 169.109375 447.839844 174.648438 450.132812 C 177.894531 451.476562 181.3125 452.503906 186.542969 453.515625 C 192.082031 454.585938 196.007812 455.34375 201.273438 455.265625 C 208.660156 455.167969 212.042969 453.535156 213.148438 452.933594 C 214.511719 452.214844 217.542969 450.582031 216.996094 448.65625 C 216.609375 447.277344 214.550781 446.382812 211.535156 445.140625 C 208.660156 443.933594 206.792969 443.546875 200.964844 442.089844 C 198.863281 441.566406 196.007812 440.84375 192.859375 440.011719 C 186.132812 438.242188 185.941406 438.007812 183.625 437.621094 Z M 183.625 437.640625 " fill-opacity="1" fill-rule="nonzero"/><path fill="#c5baa8" d="M 201.742188 438.085938 C 204.792969 437.503906 206.640625 435.460938 207.4375 434.589844 C 207.882812 434.101562 208.992188 432.800781 209.417969 429.476562 C 209.515625 428.679688 209.75 426.503906 209.046875 423.78125 C 208.5625 421.859375 207.921875 420.867188 206.386719 420.050781 C 205.511719 419.585938 204.421875 419.023438 202.480469 419.136719 C 199.757812 419.273438 197.25 420.613281 196.433594 421.042969 C 195.347656 421.625 193.558594 422.734375 192.296875 425.085938 C 191.03125 427.4375 191.363281 429.050781 191.925781 431.59375 C 192.0625 432.179688 192.605469 434.511719 194.839844 436.609375 C 195.425781 437.152344 196.414062 437.96875 198.652344 438.183594 C 199.273438 438.242188 200.398438 438.359375 201.742188 438.085938 Z M 201.742188 438.085938 " fill-opacity="1" fill-rule="nonzero"/><path fill="#8d876b" d="M 522.859375 559.3125 C 523.035156 559.253906 523.636719 558.980469 524.066406 558.398438 C 524.550781 557.738281 524.589844 557 524.609375 556.726562 C 524.765625 553.753906 521.617188 532.492188 521.207031 529.65625 C 520.839844 527.109375 520.527344 524.117188 519.613281 518.386719 C 519.128906 515.394531 518.894531 513.914062 518.640625 512.828125 C 518.019531 510.105469 516.914062 504.121094 512.984375 498.855469 C 509.894531 494.695312 508.359375 493.683594 508.359375 493.683594 C 507.195312 492.695312 506.378906 492.207031 505.890625 491.003906 C 505.347656 489.644531 505.289062 487.5625 506.378906 486.222656 C 506.378906 486.222656 506.398438 486.183594 506.4375 486.144531 C 509.933594 481.929688 518.835938 483.988281 522.878906 484.902344 C 529.488281 486.398438 529.332031 487.777344 540.3125 491.199219 C 544.898438 492.636719 549.097656 493.703125 553.238281 492.054688 C 554.308594 491.625 556.367188 490.769531 557.496094 488.613281 C 558.464844 486.765625 558.464844 484.53125 557.765625 482.9375 C 556.640625 480.355469 553.585938 479.246094 547.425781 478.003906 C 539.011719 476.3125 532.753906 475.046875 523.308594 475.804688 C 517.746094 476.253906 514.015625 476.601562 509.625 478.894531 C 507.5625 479.964844 503.617188 482.082031 500.957031 486.554688 C 498.699219 490.324219 498.488281 493.878906 498.292969 496.988281 C 497.960938 502.234375 499.011719 506.121094 500.742188 512.515625 C 502.0625 517.394531 503.539062 521.222656 504.472656 523.554688 C 505.582031 526.371094 506.164062 527.480469 507.71875 531.074219 C 509.175781 534.417969 511.335938 539.433594 514.714844 547.574219 C 514.714844 547.574219 520.585938 559.992188 522.878906 559.292969 Z M 522.859375 559.3125 " fill-opacity="1" fill-rule="nonzero"/><path fill="#8d876b" d="M 601.964844 478.914062 C 607.660156 476.875 614.695312 474.40625 618.09375 476.660156 C 619.824219 477.808594 620.40625 480.042969 619.863281 482.023438 C 617.394531 491.082031 590.613281 497.667969 585.773438 498.875 C 577.765625 500.875 562.351562 503.945312 553.800781 508.046875 C 552.636719 508.589844 552.011719 508.863281 550.75 509.40625 C 544.628906 511.992188 539.128906 514.324219 536.542969 512.945312 C 534.988281 512.109375 535.066406 510.242188 535.066406 510.164062 C 535.277344 506.238281 543.675781 502.488281 557.398438 496.386719 C 562.488281 494.113281 574.832031 488.691406 601.964844 478.933594 Z M 601.964844 478.914062 " fill-opacity="1" fill-rule="nonzero"/><path stroke-linecap="butt" transform="matrix(0, -0.74963, 0.74963, 0, 447.028377, 931.5116)" fill="none" stroke-linejoin="miter" d="M -0.000158644 0.999115 L 193.611043 0.999115 " stroke="#faf9f5" stroke-width="2" stroke-opacity="1" stroke-miterlimit="4"/></svg>