<?xml version="1.0" standalone="no"?>
<!DOCTYPE svg PUBLIC "-//W3C//DTD SVG 1.1//EN" "http://www.w3.org/Graphics/SVG/1.1/DTD/svg11.dtd">
<svg xmlns="http://www.w3.org/2000/svg" xmlns:xlink="http://www.w3.org/1999/xlink" width="810" zoomAndPan="magnify" viewBox="0 0 810 1012.49997" height="1012.5" preserveAspectRatio="xMidYMid meet" version="1.0"><path fill="#c5baa8" d="M 329.089844 804.4375 C 329.886719 804.207031 332.601562 802.949219 334.554688 800.296875 C 336.742188 797.316406 336.910156 794.003906 336.976562 792.777344 C 337.636719 779.425781 323.492188 683.648438 321.667969 670.828125 C 320.046875 659.398438 318.65625 645.882812 314.480469 620.109375 C 312.292969 606.65625 311.199219 599.933594 310.105469 595.0625 C 307.355469 582.839844 302.320312 555.871094 284.632812 532.117188 C 270.683594 513.367188 263.792969 508.859375 263.792969 508.859375 C 258.523438 504.421875 254.847656 502.203125 252.660156 496.769531 C 250.242188 490.671875 249.976562 481.296875 254.816406 475.234375 C 254.816406 475.234375 254.914062 475.101562 255.078125 474.9375 C 270.847656 455.921875 310.902344 465.195312 329.089844 469.304688 C 358.839844 476.03125 358.109375 482.226562 407.605469 497.695312 C 428.277344 504.15625 447.160156 508.960938 465.78125 501.539062 C 470.617188 499.617188 479.859375 495.773438 484.960938 486.101562 C 489.300781 477.820312 489.335938 467.746094 486.1875 460.558594 C 481.117188 448.898438 467.402344 443.925781 439.640625 438.328125 C 401.707031 430.675781 373.515625 424.976562 331.042969 428.457031 C 306.03125 430.511719 289.203125 432.066406 269.425781 442.371094 C 260.148438 447.207031 242.390625 456.75 230.367188 476.824219 C 220.160156 493.820312 219.203125 509.855469 218.339844 523.867188 C 216.882812 547.488281 221.621094 564.980469 229.40625 593.835938 C 235.335938 615.769531 242.027344 633.027344 246.203125 643.5625 C 251.171875 656.253906 253.789062 661.289062 260.8125 677.421875 C 267.371094 692.527344 277.042969 715.089844 292.316406 751.730469 C 292.316406 751.730469 318.785156 807.621094 329.089844 804.503906 Z M 329.089844 804.4375 " fill-opacity="1" fill-rule="nonzero"/><path fill="#c5baa8" d="M 373.351562 364.085938 C 364.40625 362.5625 352.777344 360.707031 339.160156 362.660156 C 329.089844 364.117188 319.183594 365.542969 314.117188 372.832031 C 310.171875 378.496094 310.074219 386.28125 313.851562 392.910156 C 315.507812 395.789062 319.746094 401.71875 340.1875 410.203125 C 352.179688 415.171875 364.835938 418.980469 384.117188 422.691406 C 404.558594 426.632812 419.035156 429.417969 438.449219 429.183594 C 465.714844 428.820312 478.171875 422.789062 482.246094 420.605469 C 487.246094 417.921875 498.476562 411.957031 496.492188 404.835938 C 495.03125 399.734375 487.445312 396.484375 476.347656 391.816406 C 465.746094 387.375 458.890625 385.917969 437.324219 380.519531 C 429.570312 378.5625 419.066406 375.945312 407.441406 372.863281 C 382.625 366.304688 381.898438 365.476562 373.351562 364.050781 Z M 373.351562 364.085938 " fill-opacity="1" fill-rule="nonzero"/><path fill="#c5baa8" d="M 440.171875 365.742188 C 451.402344 363.554688 458.226562 356.070312 461.140625 352.855469 C 462.765625 351.066406 466.875 346.261719 468.496094 333.972656 C 468.859375 331.054688 469.722656 323.039062 467.136719 312.933594 C 465.316406 305.84375 462.964844 302.199219 457.300781 299.152344 C 454.117188 297.464844 450.078125 295.375 442.855469 295.773438 C 432.816406 296.304688 423.539062 301.207031 420.558594 302.796875 C 416.550781 304.917969 409.957031 309.023438 405.285156 317.703125 C 400.648438 326.351562 401.839844 332.316406 403.894531 341.722656 C 404.359375 343.84375 406.414062 352.457031 414.660156 360.242188 C 416.78125 362.265625 420.425781 365.246094 428.742188 366.039062 C 431.027344 366.273438 435.167969 366.671875 440.171875 365.710938 Z M 440.171875 365.742188 " fill-opacity="1" fill-rule="nonzero"/><path fill="#ece3d1" d="M 486.351562 207.515625 C 485.558594 207.75 482.839844 209.007812 480.921875 211.625 C 478.734375 214.605469 478.566406 217.921875 478.5 219.144531 C 477.839844 232.464844 491.953125 328.007812 493.773438 340.828125 C 495.398438 352.226562 496.789062 365.710938 500.964844 391.449219 C 503.148438 404.867188 504.210938 411.558594 505.335938 416.429688 C 508.085938 428.621094 513.121094 455.523438 530.746094 479.242188 C 544.660156 497.929688 551.550781 502.433594 551.550781 502.433594 C 556.820312 506.871094 560.496094 509.058594 562.648438 514.492188 C 565.066406 520.554688 565.332031 529.929688 560.496094 535.992188 C 560.496094 535.992188 560.394531 536.125 560.230469 536.292969 C 544.496094 555.242188 504.539062 546 486.386719 541.890625 C 456.734375 535.164062 457.429688 529.003906 408.070312 513.566406 C 387.464844 507.105469 368.613281 502.332031 350.027344 509.722656 C 345.222656 511.644531 335.980469 515.453125 330.878906 525.125 C 326.539062 533.375 326.539062 543.449219 329.652344 550.601562 C 334.722656 562.230469 348.402344 567.199219 376.101562 572.765625 C 413.933594 580.417969 442.058594 586.085938 484.433594 582.640625 C 509.378906 580.585938 526.175781 579.0625 545.886719 568.757812 C 555.160156 563.921875 572.851562 554.414062 584.84375 534.371094 C 595.015625 517.40625 595.976562 501.40625 596.839844 487.425781 C 598.296875 463.871094 593.589844 446.410156 585.804688 417.621094 C 579.910156 395.722656 573.183594 378.53125 569.074219 367.996094 C 564.105469 355.339844 561.523438 350.304688 554.5 334.238281 C 547.941406 319.195312 538.300781 296.667969 523.09375 260.09375 C 523.09375 260.09375 496.6875 204.335938 486.417969 207.449219 Z M 486.351562 207.515625 " fill-opacity="1" fill-rule="nonzero"/><path fill="#ece3d1" d="M 442.191406 646.808594 C 451.105469 648.335938 462.699219 650.191406 476.28125 648.234375 C 486.320312 646.777344 496.191406 645.351562 501.261719 638.097656 C 505.203125 632.464844 505.304688 624.679688 501.492188 618.054688 C 499.835938 615.171875 495.597656 609.273438 475.222656 600.792969 C 463.261719 595.824219 450.640625 592.046875 431.390625 588.304688 C 410.984375 584.363281 396.574219 581.578125 377.191406 581.84375 C 349.996094 582.207031 337.570312 588.238281 333.496094 590.390625 C 328.492188 593.042969 317.296875 599.039062 319.285156 606.128906 C 320.707031 611.230469 328.292969 614.476562 339.359375 619.113281 C 349.929688 623.519531 356.785156 624.976562 378.320312 630.378906 C 386.039062 632.300781 396.539062 634.949219 408.136719 637.996094 C 432.882812 644.523438 433.613281 645.351562 442.160156 646.808594 Z M 442.191406 646.808594 " fill-opacity="1" fill-rule="nonzero"/><path fill="#ece3d1" d="M 375.503906 645.152344 C 364.304688 647.339844 357.480469 654.792969 354.566406 658.007812 C 352.941406 659.796875 348.835938 664.601562 347.246094 676.824219 C 346.878906 679.742188 346.019531 687.757812 348.570312 697.828125 C 350.390625 704.917969 352.742188 708.5625 358.375 711.578125 C 361.554688 713.265625 365.597656 715.355469 372.785156 714.957031 C 382.824219 714.425781 392.066406 709.523438 395.050781 707.933594 C 399.023438 705.8125 405.652344 701.707031 410.289062 693.058594 C 414.925781 684.445312 413.734375 678.480469 411.679688 669.074219 C 411.214844 666.953125 409.195312 658.371094 400.945312 650.621094 C 398.828125 648.632812 395.183594 645.652344 386.898438 644.824219 C 384.648438 644.589844 380.472656 644.191406 375.503906 645.152344 Z M 375.503906 645.152344 " fill-opacity="1" fill-rule="nonzero"/><path stroke-linecap="butt" transform="matrix(0, -0.74963, 0.74963, 0, 447.028377, 931.5116)" fill="none" stroke-linejoin="miter" d="M -0.000158644 0.999115 L 193.611043 0.999115 " stroke="#faf9f5" stroke-width="2" stroke-opacity="1" stroke-miterlimit="4"/></svg>