<?xml version="1.0" standalone="no"?>
<!DOCTYPE svg PUBLIC "-//W3C//DTD SVG 1.1//EN" "http://www.w3.org/Graphics/SVG/1.1/DTD/svg11.dtd">
<svg xmlns="http://www.w3.org/2000/svg" xmlns:xlink="http://www.w3.org/1999/xlink" width="810" zoomAndPan="magnify" viewBox="0 0 810 1012.49997" height="1012.5" preserveAspectRatio="xMidYMid meet" version="1.0"><path fill="#8d876b" d="M 373.703125 479.828125 C 427.9375 459.171875 421.316406 528.757812 384.730469 547.03125 C 370.550781 555.464844 349.195312 554.570312 339.519531 540.207031 C 325.359375 516.21875 350.839844 487.664062 373.109375 480.046875 Z M 386.355469 484.113281 C 362.363281 474.6875 334.71875 547.546875 367.28125 546.8125 C 386.773438 542.328125 408.664062 498.417969 386.949219 484.390625 L 386.375 484.113281 Z M 386.355469 484.113281 " fill-opacity="1" fill-rule="nonzero"/><path fill="#8d876b" d="M 433.527344 487.011719 C 456.492188 463.296875 464.382812 486.949219 468.605469 481.195312 C 471.601562 466.652344 471.699219 451.175781 475.089844 436.550781 C 476.0625 430.5 478.679688 417.503906 481.773438 431.886719 C 482.785156 438.21875 482.6875 445.042969 483.101562 451.453125 C 484.410156 474.171875 497.816406 540.304688 469.617188 549.929688 C 465.316406 550.066406 461.113281 546.953125 456.867188 548.640625 C 455.816406 548.996094 454.566406 549.472656 453.535156 549.890625 C 432.558594 558.859375 414.335938 542.707031 416.398438 522.050781 C 417.269531 509.195312 423.972656 496.613281 432.953125 487.605469 L 433.53125 487.03125 Z M 445.484375 485.976562 C 422.027344 487.328125 427.023438 555.800781 453.855469 543.300781 C 468.390625 532.605469 469.679688 489.171875 446.121094 485.976562 Z M 445.484375 485.976562 " fill-opacity="1" fill-rule="nonzero"/><path fill="#8d876b" d="M 559.085938 530.800781 C 558.511719 542.390625 534.71875 551.496094 522.839844 551.101562 C 498.628906 553.222656 482.527344 536.140625 496.191406 511.671875 C 506.382812 488.972656 535.886719 464.667969 558.492188 482.765625 C 567.773438 491.691406 563.867188 506.992188 550.441406 508.203125 C 534.320312 509.949219 516.832031 506.992188 504.992188 520.167969 C 494.007812 532.25 509.019531 537.390625 519.726562 535.839844 C 531.1875 534.691406 543.125 526.933594 554.707031 528.300781 C 556.273438 528.578125 558.195312 529.132812 558.929688 530.382812 L 559.109375 530.820312 Z M 517.84375 504.371094 C 524.605469 505.265625 533.171875 504.769531 539.714844 502.882812 C 544.929688 500.324219 548.101562 493.398438 546.914062 487.703125 C 540.863281 470.382812 520.382812 495.523438 517.566406 504.191406 L 517.84375 504.351562 Z M 517.84375 504.371094 " fill-opacity="1" fill-rule="nonzero"/><path fill="#8d876b" d="M 365.097656 575.050781 C 368.847656 572.011719 378.007812 565.484375 388.160156 567.847656 C 389.011719 568.046875 390.0625 568.304688 391.09375 568.839844 C 402.417969 574.652344 406.125 609.59375 388.277344 627.589844 C 378.484375 637.472656 360.855469 641.242188 349.929688 631.578125 C 333.292969 614.992188 348.085938 586.28125 364.664062 575.367188 Z M 376.34375 575.882812 C 354.769531 573.242188 347.570312 638.582031 374.003906 631.101562 C 388.972656 623.324219 397.578125 582.847656 376.878906 575.980469 L 376.34375 575.863281 Z M 376.34375 575.882812 " fill-opacity="1" fill-rule="nonzero"/><path fill="#8d876b" d="M 397.816406 569.375 C 403.6875 572.410156 402.121094 583.007812 403.804688 602.886719 C 405.570312 623.742188 408.128906 628.046875 411.121094 628.800781 C 412.589844 629.179688 414.039062 628.664062 415.007812 628.1875 C 416.097656 627.691406 417.230469 627.394531 417.882812 627.910156 C 419.847656 629.4375 417.804688 638.207031 413.601562 639.972656 C 408.78125 641.996094 401.445312 634.914062 398.035156 628.007812 C 396.03125 623.941406 395.875 620.90625 395.039062 612.710938 C 393.59375 598.542969 392.503906 595.207031 391.96875 587.769531 C 390.917969 573.027344 392.066406 569.910156 393.871094 568.957031 C 395.457031 568.125 397.359375 569.117188 397.796875 569.335938 Z M 397.816406 569.375 " fill-opacity="1" fill-rule="nonzero"/><path fill="#8d876b" d="M 554.03125 620.011719 C 553.476562 631.203125 530.453125 640.03125 518.972656 639.636719 C 495.574219 641.699219 480.007812 625.171875 493.195312 601.519531 C 503.050781 579.574219 531.585938 556.082031 553.4375 573.5625 C 562.417969 582.191406 558.632812 596.996094 545.664062 598.144531 C 530.078125 599.832031 513.164062 596.976562 501.722656 609.714844 C 491.09375 621.398438 505.609375 626.359375 515.960938 624.871094 C 527.042969 623.761719 538.585938 616.261719 549.769531 617.570312 C 551.292969 617.828125 553.140625 618.382812 553.851562 619.574219 L 554.03125 619.992188 Z M 514.15625 594.453125 C 520.679688 595.308594 528.96875 594.832031 535.3125 593.027344 C 540.347656 590.546875 543.421875 583.859375 542.273438 578.34375 C 536.421875 561.597656 516.613281 585.902344 513.898438 594.296875 Z M 514.15625 594.453125 " fill-opacity="1" fill-rule="nonzero"/><path fill="#8d876b" d="M 429.601562 639.695312 C 429.761719 639.65625 430.277344 639.417969 430.652344 638.902344 C 431.070312 638.324219 431.109375 637.691406 431.109375 637.453125 C 431.230469 634.894531 428.53125 616.558594 428.175781 614.117188 C 427.859375 611.9375 427.601562 609.335938 426.808594 604.414062 C 426.390625 601.835938 426.191406 600.546875 425.972656 599.613281 C 425.4375 597.273438 424.488281 592.113281 421.097656 587.570312 C 418.417969 583.976562 417.109375 583.125 417.109375 583.125 C 416.097656 582.273438 415.40625 581.855469 414.988281 580.804688 C 414.53125 579.632812 414.472656 577.847656 415.40625 576.675781 C 415.40625 576.675781 415.425781 576.65625 415.445312 576.617188 C 418.460938 572.984375 426.113281 574.75 429.601562 575.546875 C 435.292969 576.835938 435.15625 578.027344 444.613281 580.980469 C 448.558594 582.210938 452.167969 583.144531 455.738281 581.714844 C 456.671875 581.359375 458.433594 580.625 459.40625 578.757812 C 460.238281 577.171875 460.238281 575.246094 459.644531 573.878906 C 458.671875 571.636719 456.054688 570.703125 450.742188 569.632812 C 443.484375 568.164062 438.089844 567.074219 429.980469 567.746094 C 425.199219 568.144531 421.96875 568.441406 418.203125 570.40625 C 416.417969 571.339844 413.027344 573.164062 410.726562 576.992188 C 408.78125 580.246094 408.585938 583.324219 408.425781 586.003906 C 408.148438 590.527344 409.039062 593.859375 410.546875 599.394531 C 411.675781 603.601562 412.964844 606.894531 413.757812 608.917969 C 414.710938 611.339844 415.207031 612.3125 416.554688 615.40625 C 417.804688 618.304688 419.667969 622.609375 422.582031 629.636719 C 422.582031 629.636719 427.640625 640.328125 429.621094 639.734375 Z M 429.601562 639.695312 " fill-opacity="1" fill-rule="nonzero"/><path fill="#c5baa8" d="M 335.871094 660.867188 C 336.386719 660.707031 338.152344 659.894531 339.421875 658.1875 C 340.847656 656.261719 340.945312 654.101562 340.988281 653.304688 C 341.421875 644.636719 332.242188 582.488281 331.050781 574.175781 C 330 566.753906 329.089844 557.984375 326.390625 541.257812 C 324.984375 532.527344 324.269531 528.183594 323.558594 525.007812 C 321.773438 517.070312 318.5 499.570312 307.039062 484.152344 C 297.996094 471.988281 293.515625 469.074219 293.515625 469.074219 C 290.085938 466.195312 287.707031 464.765625 286.296875 461.214844 C 284.710938 457.265625 284.550781 451.175781 287.707031 447.246094 C 287.707031 447.246094 287.785156 447.148438 287.863281 447.046875 C 298.097656 434.726562 324.070312 440.71875 335.851562 443.398438 C 355.125 447.761719 354.667969 451.769531 386.753906 461.808594 C 400.15625 465.996094 412.390625 469.113281 424.488281 464.3125 C 427.621094 463.058594 433.628906 460.582031 436.921875 454.289062 C 439.734375 448.914062 439.753906 442.386719 437.734375 437.722656 C 434.441406 430.140625 425.558594 426.929688 407.554688 423.296875 C 382.964844 418.335938 364.683594 414.625 337.140625 416.886719 C 320.917969 418.21875 310.011719 419.230469 297.183594 425.917969 C 291.15625 429.050781 279.65625 435.242188 271.863281 448.277344 C 265.257812 459.308594 264.625 469.707031 264.070312 478.796875 C 263.117188 494.113281 266.191406 505.464844 271.246094 524.195312 C 275.09375 538.441406 279.4375 549.613281 282.132812 556.457031 C 285.367188 564.671875 287.050781 567.945312 291.613281 578.421875 C 295.875 588.203125 302.140625 602.847656 312.035156 626.636719 C 312.035156 626.636719 329.207031 662.910156 335.871094 660.867188 Z M 335.871094 660.867188 " fill-opacity="1" fill-rule="nonzero"/><path fill="#c5baa8" d="M 364.582031 375.160156 C 358.792969 374.1875 351.257812 372.957031 342.414062 374.246094 C 335.871094 375.199219 329.464844 376.113281 326.175781 380.855469 C 323.617188 384.527344 323.554688 389.585938 326.015625 393.871094 C 327.085938 395.734375 329.84375 399.585938 343.089844 405.082031 C 350.863281 408.316406 359.050781 410.777344 371.5625 413.199219 C 384.808594 415.757812 394.1875 417.5625 406.800781 417.402344 C 424.46875 417.164062 432.558594 413.257812 435.195312 411.847656 C 438.445312 410.121094 445.722656 406.234375 444.414062 401.628906 C 443.484375 398.316406 438.566406 396.210938 431.347656 393.195312 C 424.46875 390.320312 420.027344 389.386719 406.027344 385.875 C 401.007812 384.625 394.1875 382.898438 386.652344 380.914062 C 370.550781 376.667969 370.09375 376.132812 364.542969 375.199219 Z M 364.582031 375.160156 " fill-opacity="1" fill-rule="nonzero"/><path fill="#c5baa8" d="M 407.910156 376.230469 C 415.1875 374.824219 419.609375 369.960938 421.511719 367.878906 C 422.5625 366.726562 425.242188 363.59375 426.273438 355.636719 C 426.507812 353.75 427.066406 348.53125 425.398438 341.984375 C 424.230469 337.378906 422.683594 335.019531 419.015625 333.054688 C 416.953125 331.945312 414.335938 330.613281 409.65625 330.851562 C 403.132812 331.191406 397.121094 334.382812 395.179688 335.417969 C 392.582031 336.785156 388.300781 339.464844 385.285156 345.097656 C 382.269531 350.714844 383.042969 354.582031 384.390625 360.695312 C 384.691406 362.085938 386.019531 367.660156 391.371094 372.699219 C 392.761719 374.007812 395.121094 375.933594 400.492188 376.46875 C 401.960938 376.609375 404.65625 376.886719 407.890625 376.25 Z M 407.910156 376.230469 " fill-opacity="1" fill-rule="nonzero"/><path fill="#8d876b" d="M 474.316406 640.585938 C 470.550781 641.558594 466.863281 637.09375 465.019531 633.921875 C 456.371094 619.695312 463.351562 602.273438 468.089844 587.667969 C 467.636719 587.035156 467.378906 586.398438 467.554688 585.882812 C 468.347656 583.601562 477.550781 583.480469 479.316406 587.035156 C 480.347656 589.097656 476.636719 590.882812 476.675781 595.167969 C 476.757812 604.734375 476.101562 614.117188 476.28125 623.980469 C 475.902344 629.21875 478.164062 636.144531 474.753906 640.351562 L 474.296875 640.585938 Z M 474.316406 640.585938 " fill-opacity="1" fill-rule="nonzero"/><path fill="#8d876b" d="M 493.273438 571.082031 C 498.015625 569.375 503.863281 567.332031 506.679688 569.195312 C 508.125 570.148438 508.601562 572.011719 508.148438 573.660156 C 506.085938 581.179688 483.816406 586.675781 479.789062 587.6875 C 473.128906 589.355469 460.320312 591.914062 453.199219 595.308594 C 452.226562 595.765625 451.710938 595.984375 450.660156 596.4375 C 445.566406 598.601562 440.984375 600.527344 438.863281 599.375 C 437.574219 598.679688 437.632812 597.132812 437.632812 597.074219 C 437.8125 593.800781 444.792969 590.683594 456.195312 585.605469 C 460.4375 583.71875 470.6875 579.195312 493.253906 571.082031 Z M 493.273438 571.082031 " fill-opacity="1" fill-rule="nonzero"/></svg>