<?xml version="1.0" standalone="no"?>
<!DOCTYPE svg PUBLIC "-//W3C//DTD SVG 1.1//EN" "http://www.w3.org/Graphics/SVG/1.1/DTD/svg11.dtd">
<svg xmlns="http://www.w3.org/2000/svg" xmlns:xlink="http://www.w3.org/1999/xlink" width="810" zoomAndPan="magnify" viewBox="0 0 810 1012.49997" height="1012.5" preserveAspectRatio="xMidYMid meet" version="1.0"><path fill="#fcfbf8" d="M 408.050781 228.78125 L 408.21875 228.78125 C 412.671875 228.78125 417.125 228.890625 421.574219 229.109375 C 426.023438 229.328125 430.464844 229.65625 434.894531 230.09375 C 439.328125 230.53125 443.746094 231.074219 448.152344 231.726562 C 452.558594 232.382812 456.945312 233.144531 461.316406 234.011719 C 465.683594 234.882812 470.027344 235.855469 474.351562 236.9375 C 478.671875 238.023438 482.960938 239.210938 487.222656 240.503906 C 491.488281 241.796875 495.714844 243.191406 499.910156 244.691406 C 504.101562 246.195312 508.257812 247.796875 512.371094 249.5 C 516.488281 251.207031 520.558594 253.011719 524.585938 254.914062 C 528.613281 256.820312 532.589844 258.820312 536.515625 260.921875 C 540.445312 263.019531 544.320312 265.214844 548.140625 267.507812 C 551.960938 269.796875 555.722656 272.179688 559.425781 274.652344 C 563.128906 277.128906 566.769531 279.691406 570.347656 282.34375 C 573.925781 285 577.4375 287.738281 580.878906 290.566406 C 584.324219 293.390625 587.695312 296.300781 590.996094 299.289062 C 594.296875 302.28125 597.519531 305.351562 600.667969 308.503906 C 603.820312 311.652344 606.890625 314.878906 609.882812 318.179688 C 612.871094 321.476562 615.78125 324.851562 618.605469 328.292969 C 621.433594 331.738281 624.171875 335.246094 626.824219 338.824219 C 629.480469 342.402344 632.042969 346.042969 634.515625 349.746094 C 636.992188 353.453125 639.375 357.214844 641.664062 361.035156 C 643.953125 364.855469 646.148438 368.730469 648.25 372.65625 C 650.347656 376.585938 652.351562 380.5625 654.253906 384.589844 C 656.160156 388.617188 657.964844 392.6875 659.667969 396.804688 C 661.371094 400.917969 662.976562 405.074219 664.476562 409.269531 C 665.976562 413.460938 667.375 417.691406 668.667969 421.953125 C 669.960938 426.214844 671.148438 430.507812 672.230469 434.828125 C 673.3125 439.148438 674.285156 443.496094 675.15625 447.863281 C 676.023438 452.230469 676.785156 456.621094 677.441406 461.027344 C 678.09375 465.433594 678.636719 469.851562 679.074219 474.285156 C 679.511719 478.71875 679.839844 483.160156 680.058594 487.609375 C 680.277344 492.058594 680.386719 496.507812 680.386719 500.964844 L 680.386719 501.046875 C 680.386719 505.503906 680.277344 509.953125 680.058594 514.402344 C 679.839844 518.851562 679.511719 523.292969 679.074219 527.726562 C 678.636719 532.160156 678.09375 536.578125 677.441406 540.984375 C 676.785156 545.390625 676.023438 549.777344 675.15625 554.148438 C 674.285156 558.515625 673.3125 562.859375 672.230469 567.183594 C 671.148438 571.503906 669.960938 575.792969 668.667969 580.058594 C 667.375 584.320312 665.976562 588.546875 664.476562 592.742188 C 662.976562 596.9375 661.371094 601.089844 659.667969 605.207031 C 657.964844 609.320312 656.160156 613.394531 654.253906 617.417969 C 652.351562 621.445312 650.347656 625.425781 648.25 629.351562 C 646.148438 633.28125 643.953125 637.15625 641.664062 640.976562 C 639.375 644.796875 636.992188 648.558594 634.515625 652.261719 C 632.042969 655.96875 629.480469 659.609375 626.824219 663.183594 C 624.171875 666.761719 621.433594 670.273438 618.605469 673.71875 C 615.78125 677.160156 612.871094 680.53125 609.882812 683.832031 C 606.890625 687.132812 603.820312 690.359375 600.667969 693.507812 C 597.519531 696.660156 594.296875 699.730469 590.996094 702.71875 C 587.695312 705.710938 584.324219 708.621094 580.878906 711.445312 C 577.4375 714.273438 573.925781 717.011719 570.347656 719.664062 C 566.769531 722.320312 563.128906 724.882812 559.425781 727.359375 C 555.722656 729.832031 551.960938 732.214844 548.140625 734.503906 C 544.320312 736.792969 540.445312 738.988281 536.515625 741.089844 C 532.589844 743.191406 528.613281 745.191406 524.585938 747.097656 C 520.558594 749 516.488281 750.804688 512.371094 752.511719 C 508.257812 754.214844 504.101562 755.816406 499.910156 757.316406 C 495.714844 758.820312 491.488281 760.214844 487.222656 761.507812 C 482.960938 762.800781 478.671875 763.988281 474.351562 765.070312 C 470.027344 766.152344 465.683594 767.128906 461.316406 768 C 456.945312 768.867188 452.558594 769.628906 448.152344 770.28125 C 443.746094 770.9375 439.328125 771.480469 434.894531 771.917969 C 430.464844 772.355469 426.023438 772.683594 421.574219 772.902344 C 417.125 773.121094 412.671875 773.230469 408.21875 773.230469 L 408.050781 773.230469 C 403.597656 773.230469 399.144531 773.121094 394.695312 772.902344 C 390.246094 772.683594 385.804688 772.355469 381.375 771.917969 C 376.941406 771.480469 372.519531 770.9375 368.113281 770.28125 C 363.710938 769.628906 359.320312 768.867188 354.953125 768 C 350.585938 767.128906 346.238281 766.152344 341.917969 765.070312 C 337.597656 763.988281 333.308594 762.800781 329.042969 761.507812 C 324.78125 760.214844 320.554688 758.820312 316.359375 757.316406 C 312.167969 755.816406 308.011719 754.214844 303.894531 752.511719 C 299.78125 750.804688 295.710938 749 291.683594 747.097656 C 287.65625 745.191406 283.679688 743.1875 279.75 741.089844 C 275.824219 738.988281 271.949219 736.792969 268.128906 734.503906 C 264.308594 732.214844 260.546875 729.832031 256.84375 727.359375 C 253.140625 724.882812 249.5 722.320312 245.921875 719.664062 C 242.34375 717.011719 238.832031 714.273438 235.390625 711.445312 C 231.945312 708.621094 228.574219 705.710938 225.273438 702.71875 C 221.972656 699.730469 218.75 696.660156 215.597656 693.507812 C 212.449219 690.359375 209.378906 687.132812 206.386719 683.832031 C 203.398438 680.53125 200.488281 677.160156 197.664062 673.71875 C 194.835938 670.273438 192.097656 666.761719 189.445312 663.1875 C 186.789062 659.609375 184.226562 655.96875 181.75 652.261719 C 179.277344 648.558594 176.894531 644.796875 174.605469 640.976562 C 172.316406 637.15625 170.121094 633.28125 168.019531 629.351562 C 165.921875 625.425781 163.917969 621.445312 162.015625 617.417969 C 160.109375 613.394531 158.304688 609.320312 156.601562 605.207031 C 154.894531 601.089844 153.292969 596.9375 151.792969 592.742188 C 150.292969 588.546875 148.894531 584.320312 147.601562 580.058594 C 146.308594 575.796875 145.121094 571.503906 144.039062 567.183594 C 142.957031 562.859375 141.980469 558.515625 141.113281 554.148438 C 140.242188 549.777344 139.484375 545.390625 138.828125 540.984375 C 138.175781 536.578125 137.628906 532.160156 137.195312 527.726562 C 136.757812 523.292969 136.429688 518.851562 136.210938 514.402344 C 135.992188 509.953125 135.882812 505.503906 135.882812 501.046875 L 135.882812 500.964844 C 135.882812 496.507812 135.992188 492.058594 136.210938 487.609375 C 136.429688 483.160156 136.757812 478.71875 137.195312 474.285156 C 137.628906 469.851562 138.175781 465.433594 138.828125 461.027344 C 139.484375 456.621094 140.242188 452.230469 141.113281 447.863281 C 141.980469 443.496094 142.957031 439.148438 144.039062 434.828125 C 145.121094 430.507812 146.308594 426.214844 147.601562 421.953125 C 148.894531 417.691406 150.292969 413.460938 151.792969 409.269531 C 153.292969 405.074219 154.894531 400.917969 156.601562 396.804688 C 158.304688 392.6875 160.109375 388.617188 162.015625 384.589844 C 163.917969 380.5625 165.921875 376.585938 168.019531 372.65625 C 170.121094 368.730469 172.316406 364.855469 174.605469 361.035156 C 176.894531 357.214844 179.277344 353.453125 181.75 349.746094 C 184.226562 346.042969 186.789062 342.402344 189.445312 338.824219 C 192.097656 335.246094 194.835938 331.738281 197.664062 328.292969 C 200.488281 324.851562 203.398438 321.476562 206.386719 318.179688 C 209.378906 314.878906 212.449219 311.652344 215.597656 308.503906 C 218.75 305.351562 221.972656 302.28125 225.273438 299.289062 C 228.574219 296.300781 231.945312 293.390625 235.390625 290.566406 C 238.832031 287.738281 242.34375 285 245.921875 282.34375 C 249.5 279.691406 253.140625 277.128906 256.84375 274.652344 C 260.546875 272.179688 264.308594 269.796875 268.128906 267.507812 C 271.949219 265.214844 275.824219 263.019531 279.75 260.921875 C 283.679688 258.820312 287.65625 256.820312 291.683594 254.914062 C 295.710938 253.011719 299.78125 251.207031 303.894531 249.5 C 308.011719 247.796875 312.167969 246.195312 316.359375 244.691406 C 320.554688 243.191406 324.78125 241.796875 329.042969 240.503906 C 333.308594 239.210938 337.597656 238.023438 341.917969 236.9375 C 346.238281 235.855469 350.585938 234.882812 354.953125 234.011719 C 359.320312 233.144531 363.710938 232.382812 368.113281 231.726562 C 372.519531 231.074219 376.941406 230.53125 381.375 230.09375 C 385.804688 229.65625 390.246094 229.328125 394.695312 229.109375 C 399.144531 228.890625 403.597656 228.78125 408.050781 228.78125 Z M 408.050781 228.78125 " fill-opacity="1" fill-rule="nonzero"/><path fill="#8d876b" d="M 371.53125 488.3125 C 420.953125 469.503906 414.882812 532.84375 381.566406 549.460938 C 368.664062 557.136719 349.179688 556.292969 340.410156 543.21875 C 327.503906 521.375 350.699219 495.398438 371.023438 488.480469 Z M 383 492.191406 C 361.15625 483.589844 335.9375 549.882812 365.625 549.292969 C 383.339844 545.246094 403.328125 505.265625 383.507812 492.527344 L 383 492.277344 Z M 383 492.191406 " fill-opacity="1" fill-rule="nonzero"/><path fill="#8d876b" d="M 426.015625 494.890625 C 446.929688 473.296875 454.101562 494.890625 457.980469 489.578125 C 460.679688 476.335938 460.761719 462.25 463.882812 448.921875 C 464.8125 443.441406 467.171875 431.546875 469.957031 444.707031 C 470.882812 450.441406 470.800781 456.683594 471.136719 462.503906 C 472.316406 483.167969 484.546875 543.390625 458.824219 552.160156 C 454.945312 552.246094 451.0625 549.460938 447.183594 550.980469 C 446.257812 551.316406 445.074219 551.738281 444.148438 552.078125 C 425.085938 560.257812 408.472656 545.496094 410.328125 526.773438 C 411.085938 515.050781 417.242188 503.664062 425.425781 495.398438 L 425.929688 494.890625 Z M 436.894531 493.960938 C 415.554688 495.226562 420.109375 557.472656 444.484375 546.171875 C 457.726562 536.472656 458.90625 496.914062 437.402344 494.046875 L 436.808594 494.046875 Z M 436.894531 493.960938 " fill-opacity="1" fill-rule="nonzero"/><path fill="#8d876b" d="M 540.296875 534.703125 C 539.789062 545.246094 518.113281 553.511719 507.320312 553.171875 C 485.304688 555.113281 470.628906 539.59375 483.027344 517.328125 C 492.304688 496.660156 519.210938 474.5625 539.789062 491.011719 C 548.222656 499.109375 544.683594 513.023438 532.453125 514.121094 C 517.777344 515.722656 501.835938 513.023438 491.042969 525 C 481.003906 535.964844 494.667969 540.691406 504.453125 539.253906 C 514.910156 538.242188 525.789062 531.160156 536.332031 532.425781 C 537.765625 532.675781 539.535156 533.183594 540.210938 534.28125 L 540.378906 534.703125 Z M 502.765625 510.664062 C 508.921875 511.507812 516.679688 511 522.667969 509.3125 C 527.390625 506.953125 530.34375 500.710938 529.246094 495.480469 C 523.765625 479.707031 505.125 502.566406 502.511719 510.496094 Z M 502.765625 510.664062 " fill-opacity="1" fill-rule="nonzero"/><path fill="#8d876b" d="M 363.6875 575.019531 C 367.0625 572.234375 375.410156 566.332031 384.6875 568.4375 C 385.445312 568.609375 386.375 568.859375 387.386719 569.367188 C 397.675781 574.679688 401.050781 606.480469 384.855469 622.839844 C 375.917969 631.867188 359.890625 635.242188 349.941406 626.46875 C 334.757812 611.371094 348.253906 585.222656 363.351562 575.269531 L 363.769531 575.019531 Z M 373.890625 575.777344 C 354.242188 573.414062 347.664062 632.792969 371.785156 626.046875 C 385.445312 618.960938 393.289062 582.101562 374.398438 575.863281 L 373.890625 575.863281 Z M 373.890625 575.777344 " fill-opacity="1" fill-rule="nonzero"/><path fill="#8d876b" d="M 393.460938 569.789062 C 398.773438 572.570312 397.421875 582.1875 398.941406 600.320312 C 400.542969 619.300781 402.90625 623.261719 405.605469 623.9375 C 406.953125 624.277344 408.21875 623.855469 409.148438 623.347656 C 410.160156 622.925781 411.171875 622.589844 411.761719 623.09375 C 413.53125 624.445312 411.761719 632.457031 407.882812 634.058594 C 403.496094 635.914062 396.832031 629.421875 393.710938 623.179688 C 391.855469 619.46875 391.773438 616.683594 391.011719 609.261719 C 389.664062 596.359375 388.734375 593.320312 388.230469 586.574219 C 387.300781 573.164062 388.316406 570.292969 389.917969 569.453125 C 391.351562 568.691406 393.121094 569.621094 393.460938 569.789062 Z M 393.460938 569.789062 " fill-opacity="1" fill-rule="nonzero"/><path fill="#8d876b" d="M 535.742188 615.925781 C 535.234375 626.132812 514.320312 634.144531 503.859375 633.804688 C 482.523438 635.660156 468.355469 620.648438 480.414062 599.140625 C 489.355469 579.152344 515.414062 557.8125 535.234375 573.667969 C 543.417969 581.511719 539.957031 595.007812 528.152344 596.019531 C 513.980469 597.539062 498.546875 594.921875 488.171875 606.5625 C 478.472656 617.191406 491.714844 621.746094 501.164062 620.394531 C 511.28125 619.382812 521.742188 612.550781 531.945312 613.734375 C 533.296875 613.984375 534.984375 614.492188 535.65625 615.589844 L 535.824219 616.011719 Z M 499.390625 592.644531 C 505.378906 593.40625 512.886719 592.984375 518.621094 591.382812 C 523.175781 589.105469 526.042969 583.03125 524.945312 578.054688 C 519.632812 562.789062 501.582031 584.972656 499.136719 592.5625 L 499.390625 592.730469 Z M 499.390625 592.644531 " fill-opacity="1" fill-rule="nonzero"/><path fill="#8d876b" d="M 422.386719 633.804688 C 422.386719 633.804688 422.976562 633.554688 423.316406 633.046875 C 423.738281 632.542969 423.738281 631.949219 423.738281 631.699219 C 423.820312 629.335938 421.375 612.71875 421.039062 610.441406 C 420.785156 608.417969 420.53125 606.058594 419.773438 601.585938 C 419.4375 599.226562 419.183594 598.042969 419.015625 597.199219 C 418.507812 595.09375 417.664062 590.367188 414.542969 586.234375 C 412.097656 582.945312 410.917969 582.1875 410.917969 582.1875 C 409.988281 581.429688 409.316406 581.007812 408.976562 580.078125 C 408.554688 578.980469 408.472656 577.378906 409.316406 576.367188 C 412.097656 573.078125 419.015625 574.679688 422.21875 575.355469 C 427.363281 576.535156 427.28125 577.632812 435.882812 580.332031 C 439.507812 581.429688 442.796875 582.273438 446.003906 581.007812 C 446.847656 580.667969 448.449219 579.996094 449.378906 578.308594 C 450.136719 576.875 450.136719 575.101562 449.628906 573.835938 C 448.785156 571.8125 446.339844 570.96875 441.535156 569.957031 C 434.953125 568.609375 429.980469 567.59375 422.640625 568.269531 C 418.253906 568.609375 415.386719 568.859375 411.929688 570.714844 C 410.328125 571.558594 407.207031 573.246094 405.097656 576.703125 C 403.328125 579.65625 403.160156 582.441406 402.988281 584.886719 C 402.738281 589.019531 403.582031 592.054688 404.929688 597.117188 C 405.941406 600.910156 407.121094 603.949219 407.882812 605.804688 C 408.726562 607.996094 409.230469 608.925781 410.410156 611.707031 C 411.59375 614.324219 413.28125 618.285156 415.894531 624.613281 C 415.894531 624.613281 420.53125 634.3125 422.304688 633.804688 Z M 422.386719 633.804688 " fill-opacity="1" fill-rule="nonzero"/><path fill="#c5baa8" d="M 337.035156 653.121094 C 337.542969 652.953125 339.144531 652.277344 340.242188 650.675781 C 341.503906 648.902344 341.675781 646.964844 341.675781 646.207031 C 342.097656 638.277344 333.746094 581.765625 332.648438 574.175781 C 331.722656 567.425781 330.878906 559.414062 328.433594 544.230469 C 327.167969 536.304688 326.492188 532.339844 325.816406 529.472656 C 324.214844 522.21875 321.179688 506.363281 310.804688 492.277344 C 302.539062 481.226562 298.492188 478.527344 298.492188 478.527344 C 295.371094 475.914062 293.179688 474.5625 291.914062 471.359375 C 290.480469 467.730469 290.3125 462.25 293.179688 458.621094 C 293.179688 458.621094 293.179688 458.621094 293.347656 458.453125 C 302.625 447.234375 326.324219 452.71875 337.035156 455.164062 C 354.578125 459.128906 354.15625 462.753906 383.421875 471.949219 C 395.652344 475.746094 406.785156 478.613281 417.75 474.226562 C 420.617188 473.128906 426.097656 470.851562 429.050781 465.117188 C 431.582031 460.226562 431.664062 454.320312 429.808594 450.019531 C 426.859375 443.101562 418.761719 440.234375 402.316406 436.859375 C 379.878906 432.304688 363.265625 429.015625 338.214844 431.042969 C 323.457031 432.222656 313.503906 433.148438 301.867188 439.222656 C 296.382812 442.089844 285.925781 447.742188 278.839844 459.550781 C 272.851562 469.585938 272.261719 479.035156 271.753906 487.300781 C 270.914062 501.214844 273.695312 511.589844 278.25 528.628906 C 281.707031 541.617188 285.671875 551.738281 288.117188 557.980469 C 291.070312 565.488281 292.585938 568.4375 296.71875 577.96875 C 300.601562 586.910156 306.335938 600.238281 315.359375 621.828125 C 315.359375 621.828125 330.960938 654.808594 337.035156 652.953125 Z M 337.035156 653.121094 " fill-opacity="1" fill-rule="nonzero"/><path fill="#c5baa8" d="M 363.179688 393.085938 C 357.867188 392.160156 351.035156 391.0625 343.023438 392.242188 C 337.035156 393.085938 331.214844 393.929688 328.265625 398.230469 C 325.902344 401.605469 325.902344 406.160156 328.09375 410.125 C 329.105469 411.8125 331.554688 415.351562 343.613281 420.328125 C 350.699219 423.28125 358.121094 425.476562 369.507812 427.75 C 381.566406 430.113281 390.085938 431.714844 401.554688 431.546875 C 417.664062 431.292969 425.003906 427.75 427.449219 426.488281 C 430.398438 424.882812 437.0625 421.339844 435.882812 417.207031 C 435.039062 414.171875 430.570312 412.234375 423.992188 409.535156 C 417.75 406.917969 413.699219 406.074219 400.964844 402.871094 C 396.410156 401.6875 390.167969 400.171875 383.339844 398.316406 C 368.664062 394.4375 368.242188 393.929688 363.179688 393.085938 Z M 363.179688 393.085938 " fill-opacity="1" fill-rule="nonzero"/><path fill="#c5baa8" d="M 402.652344 394.097656 C 409.316406 392.832031 413.277344 388.363281 415.050781 386.507812 C 415.976562 385.496094 418.425781 382.628906 419.351562 375.375 C 419.605469 373.6875 420.109375 368.878906 418.59375 362.976562 C 417.496094 358.757812 416.148438 356.648438 412.773438 354.878906 C 410.917969 353.867188 408.472656 352.683594 404.253906 352.855469 C 398.351562 353.191406 392.867188 356.058594 391.097656 356.988281 C 388.734375 358.25 384.855469 360.699219 382.074219 365.757812 C 379.375 370.902344 380.050781 374.363281 381.230469 379.929688 C 381.484375 381.195312 382.746094 386.253906 387.554688 390.894531 C 388.820312 392.074219 390.929688 393.84375 395.90625 394.351562 C 397.253906 394.519531 399.699219 394.6875 402.652344 394.183594 Z M 402.652344 394.097656 " fill-opacity="1" fill-rule="nonzero"/><path fill="#8d876b" d="M 463.125 634.648438 C 459.667969 635.578125 456.378906 631.445312 454.691406 628.578125 C 446.847656 615.589844 453.171875 599.816406 457.472656 586.488281 C 457.050781 585.898438 456.800781 585.308594 456.96875 584.886719 C 457.726562 582.777344 466.078125 582.695312 467.679688 585.898438 C 468.605469 587.753906 465.234375 589.441406 465.234375 593.320312 C 465.234375 602.007812 464.726562 610.527344 464.894531 619.550781 C 464.558594 624.277344 466.582031 630.601562 463.546875 634.480469 L 463.125 634.734375 Z M 463.125 634.648438 " fill-opacity="1" fill-rule="nonzero"/><path fill="#8d876b" d="M 480.414062 571.390625 C 484.714844 569.871094 490.027344 568.015625 492.644531 569.703125 C 493.992188 570.546875 494.414062 572.234375 493.992188 573.753906 C 492.136719 580.585938 471.8125 585.5625 468.183594 586.488281 C 462.113281 588.007812 450.472656 590.367188 443.980469 593.40625 C 443.136719 593.828125 442.628906 593.996094 441.703125 594.417969 C 437.0625 596.359375 432.929688 598.128906 430.992188 597.117188 C 429.808594 596.527344 429.894531 595.09375 429.894531 595.007812 C 430.0625 592.054688 436.386719 589.1875 446.761719 584.550781 C 450.640625 582.863281 460.003906 578.730469 480.5 571.308594 Z M 480.414062 571.390625 " fill-opacity="1" fill-rule="nonzero"/></svg>