<?xml version="1.0" standalone="no"?>
<!DOCTYPE svg PUBLIC "-//W3C//DTD SVG 1.1//EN" "http://www.w3.org/Graphics/SVG/1.1/DTD/svg11.dtd">
<svg xmlns="http://www.w3.org/2000/svg" xmlns:xlink="http://www.w3.org/1999/xlink" width="810" zoomAndPan="magnify" viewBox="0 0 810 1012.49997" height="1012.5" preserveAspectRatio="xMidYMid meet" version="1.0"><path fill="#fcfbf8" d="M 402.785156 221.511719 L 404.640625 221.511719 C 409.082031 221.511719 413.523438 221.621094 417.960938 221.839844 C 422.398438 222.058594 426.828125 222.382812 431.25 222.820312 C 435.671875 223.253906 440.082031 223.800781 444.476562 224.453125 C 448.871094 225.101562 453.246094 225.863281 457.605469 226.730469 C 461.960938 227.597656 466.296875 228.570312 470.605469 229.648438 C 474.917969 230.730469 479.199219 231.914062 483.449219 233.203125 C 487.699219 234.492188 491.917969 235.886719 496.101562 237.382812 C 500.285156 238.878906 504.429688 240.480469 508.535156 242.179688 C 512.640625 243.878906 516.699219 245.679688 520.71875 247.582031 C 524.734375 249.480469 528.699219 251.476562 532.621094 253.570312 C 536.539062 255.667969 540.402344 257.855469 544.214844 260.140625 C 548.023438 262.425781 551.777344 264.800781 555.472656 267.269531 C 559.167969 269.738281 562.796875 272.296875 566.367188 274.941406 C 569.9375 277.589844 573.4375 280.324219 576.871094 283.140625 C 580.304688 285.960938 583.671875 288.863281 586.960938 291.847656 C 590.253906 294.828125 593.472656 297.894531 596.613281 301.035156 C 599.753906 304.175781 602.816406 307.394531 605.800781 310.6875 C 608.785156 313.980469 611.6875 317.34375 614.503906 320.777344 C 617.324219 324.210938 620.058594 327.714844 622.703125 331.28125 C 625.351562 334.851562 627.90625 338.484375 630.375 342.179688 C 632.84375 345.871094 635.222656 349.625 637.503906 353.4375 C 639.789062 357.246094 641.980469 361.113281 644.074219 365.03125 C 646.167969 368.949219 648.164062 372.917969 650.066406 376.933594 C 651.964844 380.953125 653.765625 385.011719 655.464844 389.117188 C 657.164062 393.222656 658.765625 397.367188 660.261719 401.550781 C 661.757812 405.734375 663.152344 409.953125 664.441406 414.203125 C 665.730469 418.457031 666.914062 422.738281 667.996094 427.046875 C 669.074219 431.359375 670.046875 435.691406 670.914062 440.050781 C 671.78125 444.410156 672.539062 448.785156 673.191406 453.179688 C 673.84375 457.574219 674.386719 461.984375 674.824219 466.40625 C 675.257812 470.828125 675.585938 475.257812 675.804688 479.695312 C 676.023438 484.132812 676.132812 488.574219 676.132812 493.019531 L 676.132812 493.101562 C 676.132812 497.546875 676.023438 501.988281 675.804688 506.425781 C 675.585938 510.863281 675.257812 515.292969 674.824219 519.714844 C 674.386719 524.136719 673.84375 528.546875 673.191406 532.941406 C 672.539062 537.335938 671.78125 541.714844 670.914062 546.070312 C 670.046875 550.429688 669.074219 554.761719 667.996094 559.074219 C 666.914062 563.382812 665.730469 567.664062 664.441406 571.917969 C 663.152344 576.167969 661.757812 580.386719 660.261719 584.570312 C 658.765625 588.753906 657.164062 592.898438 655.464844 597.003906 C 653.765625 601.109375 651.964844 605.167969 650.066406 609.1875 C 648.164062 613.203125 646.167969 617.171875 644.074219 621.089844 C 641.980469 625.007812 639.789062 628.875 637.503906 632.683594 C 635.222656 636.496094 632.84375 640.25 630.375 643.945312 C 627.90625 647.636719 625.351562 651.269531 622.703125 654.839844 C 620.058594 658.40625 617.324219 661.910156 614.503906 665.34375 C 611.6875 668.78125 608.785156 672.144531 605.800781 675.433594 C 602.816406 678.726562 599.753906 681.945312 596.613281 685.085938 C 593.472656 688.230469 590.253906 691.292969 586.960938 694.277344 C 583.671875 697.261719 580.304688 700.160156 576.871094 702.980469 C 573.4375 705.800781 569.933594 708.53125 566.367188 711.179688 C 562.796875 713.824219 559.167969 716.382812 555.472656 718.851562 C 551.777344 721.320312 548.023438 723.695312 544.214844 725.980469 C 540.402344 728.265625 536.539062 730.457031 532.621094 732.550781 C 528.699219 734.644531 524.734375 736.640625 520.71875 738.542969 C 516.699219 740.441406 512.640625 742.242188 508.535156 743.941406 C 504.429688 745.640625 500.285156 747.242188 496.101562 748.738281 C 491.917969 750.234375 487.699219 751.628906 483.449219 752.917969 C 479.199219 754.207031 474.917969 755.394531 470.605469 756.472656 C 466.296875 757.550781 461.960938 758.523438 457.605469 759.390625 C 453.246094 760.257812 448.871094 761.019531 444.476562 761.671875 C 440.082031 762.324219 435.671875 762.867188 431.25 763.300781 C 426.828125 763.738281 422.398438 764.0625 417.960938 764.28125 C 413.523438 764.5 409.082031 764.609375 404.640625 764.609375 L 402.785156 764.609375 C 398.339844 764.609375 393.898438 764.5 389.460938 764.28125 C 385.023438 764.0625 380.59375 763.738281 376.171875 763.300781 C 371.75 762.867188 367.34375 762.324219 362.949219 761.671875 C 358.550781 761.019531 354.175781 760.257812 349.816406 759.390625 C 345.460938 758.523438 341.125 757.550781 336.816406 756.472656 C 332.507812 755.394531 328.226562 754.207031 323.972656 752.917969 C 319.722656 751.628906 315.503906 750.234375 311.320312 748.738281 C 307.136719 747.242188 302.992188 745.640625 298.886719 743.941406 C 294.78125 742.242188 290.722656 740.441406 286.707031 738.542969 C 282.6875 736.640625 278.722656 734.644531 274.804688 732.550781 C 270.882812 730.457031 267.019531 728.265625 263.207031 725.980469 C 259.398438 723.695312 255.644531 721.320312 251.949219 718.851562 C 248.257812 716.382812 244.625 713.824219 241.054688 711.179688 C 237.488281 708.53125 233.984375 705.800781 230.550781 702.980469 C 227.117188 700.160156 223.753906 697.261719 220.460938 694.277344 C 217.167969 691.292969 213.953125 688.230469 210.808594 685.085938 C 207.667969 681.945312 204.605469 678.726562 201.621094 675.433594 C 198.636719 672.144531 195.734375 668.78125 192.917969 665.34375 C 190.097656 661.910156 187.367188 658.40625 184.71875 654.839844 C 182.070312 651.269531 179.515625 647.636719 177.046875 643.945312 C 174.578125 640.25 172.199219 636.496094 169.917969 632.683594 C 167.632812 628.875 165.441406 625.007812 163.347656 621.089844 C 161.253906 617.171875 159.257812 613.203125 157.355469 609.1875 C 155.457031 605.171875 153.65625 601.109375 151.957031 597.003906 C 150.257812 592.898438 148.660156 588.753906 147.160156 584.570312 C 145.664062 580.386719 144.273438 576.167969 142.980469 571.917969 C 141.691406 567.664062 140.507812 563.382812 139.425781 559.074219 C 138.347656 554.761719 137.375 550.429688 136.507812 546.070312 C 135.640625 541.714844 134.882812 537.335938 134.230469 532.941406 C 133.578125 528.546875 133.035156 524.136719 132.597656 519.714844 C 132.164062 515.292969 131.835938 510.863281 131.617188 506.425781 C 131.402344 501.988281 131.292969 497.546875 131.292969 493.101562 L 131.292969 493.019531 C 131.292969 488.574219 131.402344 484.132812 131.617188 479.695312 C 131.835938 475.257812 132.164062 470.828125 132.597656 466.40625 C 133.035156 461.984375 133.578125 457.574219 134.230469 453.179688 C 134.882812 448.785156 135.640625 444.410156 136.507812 440.050781 C 137.375 435.691406 138.347656 431.359375 139.425781 427.046875 C 140.507812 422.738281 141.691406 418.457031 142.980469 414.203125 C 144.273438 409.953125 145.664062 405.734375 147.160156 401.550781 C 148.660156 397.367188 150.257812 393.222656 151.957031 389.117188 C 153.65625 385.011719 155.457031 380.953125 157.359375 376.933594 C 159.257812 372.917969 161.253906 368.949219 163.347656 365.03125 C 165.441406 361.113281 167.632812 357.246094 169.917969 353.4375 C 172.199219 349.625 174.578125 345.871094 177.046875 342.179688 C 179.515625 338.484375 182.070312 334.851562 184.71875 331.28125 C 187.367188 327.714844 190.097656 324.210938 192.917969 320.777344 C 195.734375 317.34375 198.636719 313.980469 201.621094 310.6875 C 204.605469 307.394531 207.667969 304.175781 210.808594 301.035156 C 213.953125 297.894531 217.167969 294.828125 220.460938 291.847656 C 223.753906 288.863281 227.117188 285.960938 230.550781 283.140625 C 233.984375 280.324219 237.488281 277.589844 241.054688 274.941406 C 244.625 272.296875 248.257812 269.738281 251.949219 267.269531 C 255.644531 264.800781 259.398438 262.425781 263.207031 260.140625 C 267.019531 257.855469 270.882812 255.667969 274.804688 253.570312 C 278.722656 251.476562 282.6875 249.480469 286.707031 247.582031 C 290.722656 245.679688 294.78125 243.878906 298.886719 242.179688 C 302.992188 240.480469 307.136719 238.878906 311.320312 237.382812 C 315.503906 235.886719 319.722656 234.492188 323.972656 233.203125 C 328.226562 231.914062 332.507812 230.730469 336.816406 229.648438 C 341.125 228.570312 345.460938 227.597656 349.816406 226.730469 C 354.175781 225.863281 358.550781 225.101562 362.949219 224.453125 C 367.34375 223.800781 371.75 223.253906 376.171875 222.820312 C 380.59375 222.382812 385.023438 222.058594 389.460938 221.839844 C 393.898438 221.621094 398.339844 221.511719 402.785156 221.511719 Z M 402.785156 221.511719 " fill-opacity="1" fill-rule="nonzero"/><path fill="#c5baa8" d="M 359.011719 663.226562 C 359.433594 663.058594 361.035156 662.382812 362.132812 660.863281 C 363.398438 659.179688 363.480469 657.238281 363.480469 656.5625 C 363.902344 648.886719 355.804688 594.148438 354.710938 586.808594 C 353.78125 580.316406 352.9375 572.554688 350.578125 557.796875 C 349.3125 550.121094 348.722656 546.242188 348.046875 543.457031 C 346.445312 536.457031 343.578125 521.019531 333.457031 507.441406 C 325.445312 496.730469 321.5625 494.117188 321.5625 494.117188 C 318.527344 491.585938 316.417969 490.320312 315.152344 487.199219 C 313.804688 483.742188 313.636719 478.34375 316.417969 474.882812 C 316.417969 474.882812 316.417969 474.882812 316.585938 474.714844 C 325.613281 463.835938 348.46875 469.148438 358.925781 471.511719 C 375.964844 475.390625 375.542969 478.933594 403.796875 487.707031 C 415.605469 491.417969 426.398438 494.117188 437.109375 489.898438 C 439.894531 488.800781 445.207031 486.609375 448.074219 481.042969 C 450.519531 476.320312 450.605469 470.582031 448.75 466.449219 C 445.882812 459.785156 438.039062 456.917969 422.097656 453.714844 C 400.421875 449.328125 384.3125 446.039062 360.023438 448.0625 C 345.683594 449.242188 336.070312 450.085938 324.769531 455.992188 C 319.457031 458.773438 309.335938 464.171875 302.417969 475.726562 C 296.597656 485.429688 296.007812 494.621094 295.585938 502.632812 C 294.742188 516.128906 297.441406 526.167969 301.914062 542.613281 C 305.285156 555.179688 309.164062 565.050781 311.527344 571.039062 C 314.394531 578.292969 315.828125 581.160156 319.878906 590.4375 C 323.671875 599.039062 329.15625 611.945312 337.925781 632.945312 C 337.925781 632.945312 353.023438 664.914062 358.925781 663.140625 Z M 359.011719 663.226562 " fill-opacity="1" fill-rule="nonzero"/><path fill="#c5baa8" d="M 384.398438 411.457031 C 379.253906 410.613281 372.675781 409.515625 364.832031 410.613281 C 359.09375 411.457031 353.445312 412.300781 350.492188 416.433594 C 348.214844 419.640625 348.214844 424.109375 350.324219 427.90625 C 351.25 429.507812 353.699219 432.964844 365.421875 437.773438 C 372.253906 440.640625 379.503906 442.832031 390.554688 444.941406 C 402.277344 447.21875 410.542969 448.820312 421.589844 448.652344 C 437.195312 448.484375 444.277344 445.027344 446.640625 443.761719 C 449.507812 442.242188 455.917969 438.785156 454.738281 434.738281 C 453.894531 431.785156 449.59375 429.929688 443.183594 427.3125 C 437.109375 424.785156 433.230469 423.941406 420.832031 420.820312 C 416.445312 419.722656 410.375 418.203125 403.710938 416.433594 C 389.542969 412.722656 389.121094 412.214844 384.230469 411.375 Z M 384.398438 411.457031 " fill-opacity="1" fill-rule="nonzero"/><path fill="#c5baa8" d="M 422.605469 412.386719 C 429.011719 411.121094 432.894531 406.820312 434.578125 405.046875 C 435.507812 404.035156 437.871094 401.25 438.796875 394.25 C 439.050781 392.5625 439.472656 388.007812 438.039062 382.191406 C 437.027344 378.140625 435.675781 376.03125 432.386719 374.34375 C 430.53125 373.332031 428.253906 372.152344 424.121094 372.40625 C 418.386719 372.742188 413.074219 375.527344 411.386719 376.453125 C 409.109375 377.636719 405.3125 379.996094 402.613281 384.972656 C 400 389.949219 400.675781 393.324219 401.855469 398.722656 C 402.109375 399.902344 403.289062 404.878906 408.011719 409.265625 C 409.195312 410.445312 411.300781 412.132812 416.023438 412.554688 C 417.289062 412.722656 419.734375 412.890625 422.519531 412.386719 Z M 422.605469 412.386719 " fill-opacity="1" fill-rule="nonzero"/><path fill="#ece3d1" d="M 449.003906 321.882812 C 448.582031 322.050781 446.976562 322.726562 445.882812 324.246094 C 444.617188 325.929688 444.53125 327.871094 444.53125 328.546875 C 444.109375 336.136719 452.207031 390.792969 453.304688 398.132812 C 454.230469 404.625 454.992188 412.386719 457.4375 427.0625 C 458.703125 434.738281 459.292969 438.53125 459.964844 441.316406 C 461.570312 448.316406 464.4375 463.667969 474.472656 477.246094 C 482.402344 487.957031 486.367188 490.488281 486.367188 490.488281 C 489.402344 493.019531 491.511719 494.285156 492.691406 497.40625 C 494.039062 500.863281 494.207031 506.261719 491.425781 509.71875 C 491.425781 509.71875 491.425781 509.71875 491.257812 509.886719 C 482.234375 520.769531 459.375 515.453125 449.003906 513.09375 C 432.050781 509.214844 432.472656 505.753906 404.21875 496.898438 C 392.410156 493.1875 381.699219 490.488281 370.988281 494.707031 C 368.203125 495.800781 362.976562 497.996094 360.023438 503.5625 C 357.578125 508.285156 357.492188 514.019531 359.347656 518.152344 C 362.214844 524.816406 370.058594 527.601562 385.914062 530.804688 C 407.589844 535.191406 423.617188 538.394531 447.820312 536.457031 C 462.074219 535.277344 471.691406 534.433594 482.992188 528.527344 C 488.304688 525.746094 498.425781 520.347656 505.257812 508.875 C 511.078125 499.175781 511.582031 490.066406 512.089844 482.054688 C 512.933594 468.558594 510.234375 458.605469 505.761719 442.160156 C 502.390625 429.675781 498.59375 419.808594 496.148438 413.820312 C 493.28125 406.566406 491.847656 403.699219 487.800781 394.503906 C 484.085938 385.902344 478.519531 372.996094 469.835938 352.078125 C 469.835938 352.078125 454.738281 320.195312 448.832031 321.96875 Z M 449.003906 321.882812 " fill-opacity="1" fill-rule="nonzero"/><path fill="#ece3d1" d="M 423.699219 573.144531 C 428.761719 573.988281 435.421875 575.085938 443.183594 573.988281 C 448.917969 573.144531 454.570312 572.304688 457.4375 568.171875 C 459.714844 564.964844 459.714844 560.496094 457.605469 556.699219 C 456.675781 555.097656 454.230469 551.636719 442.59375 546.832031 C 435.761719 543.964844 428.507812 541.855469 417.542969 539.660156 C 405.90625 537.382812 397.640625 535.78125 386.507812 535.949219 C 370.988281 536.117188 363.820312 539.578125 361.542969 540.84375 C 358.671875 542.359375 352.265625 545.820312 353.445312 549.867188 C 354.289062 552.820312 358.589844 554.675781 364.914062 557.289062 C 370.988281 559.820312 374.867188 560.664062 387.179688 563.699219 C 391.566406 564.796875 397.554688 566.316406 404.21875 568.085938 C 418.386719 571.796875 418.808594 572.304688 423.699219 573.144531 Z M 423.699219 573.144531 " fill-opacity="1" fill-rule="nonzero"/><path fill="#ece3d1" d="M 385.578125 572.21875 C 379.167969 573.484375 375.289062 577.699219 373.601562 579.558594 C 372.675781 580.570312 370.3125 583.351562 369.386719 590.351562 C 369.132812 592.039062 368.710938 596.59375 370.144531 602.328125 C 371.15625 606.378906 372.503906 608.488281 375.792969 610.171875 C 377.648438 611.1875 379.925781 612.28125 384.058594 612.113281 C 389.796875 611.777344 395.109375 608.992188 396.796875 608.066406 C 399.074219 606.882812 402.867188 604.523438 405.484375 599.546875 C 408.097656 594.65625 407.421875 591.195312 406.242188 585.796875 C 405.988281 584.617188 404.808594 579.640625 400.085938 575.253906 C 398.902344 574.074219 396.796875 572.386719 392.074219 571.964844 C 390.808594 571.796875 388.445312 571.628906 385.578125 572.132812 Z M 385.578125 572.21875 " fill-opacity="1" fill-rule="nonzero"/></svg>