<?xml version="1.0" standalone="no"?>
<!DOCTYPE svg PUBLIC "-//W3C//DTD SVG 1.1//EN" "http://www.w3.org/Graphics/SVG/1.1/DTD/svg11.dtd">
<svg xmlns="http://www.w3.org/2000/svg" xmlns:xlink="http://www.w3.org/1999/xlink" width="810" zoomAndPan="magnify" viewBox="0 0 810 1012.49997" height="1012.5" preserveAspectRatio="xMidYMid meet" version="1.0"><path fill="#8d876b" d="M 403.96875 228.636719 L 405.738281 228.636719 C 410.183594 228.636719 414.625 228.746094 419.0625 228.964844 C 423.5 229.183594 427.929688 229.507812 432.351562 229.945312 C 436.773438 230.378906 441.179688 230.925781 445.574219 231.574219 C 449.972656 232.226562 454.347656 232.988281 458.703125 233.855469 C 463.0625 234.722656 467.398438 235.695312 471.707031 236.773438 C 476.015625 237.851562 480.296875 239.039062 484.550781 240.328125 C 488.800781 241.617188 493.019531 243.011719 497.203125 244.507812 C 501.386719 246.003906 505.53125 247.605469 509.636719 249.304688 C 513.738281 251.003906 517.800781 252.804688 521.816406 254.703125 C 525.832031 256.605469 529.800781 258.601562 533.71875 260.695312 C 537.636719 262.789062 541.503906 264.980469 545.3125 267.265625 C 549.125 269.550781 552.878906 271.925781 556.574219 274.394531 C 560.265625 276.863281 563.898438 279.421875 567.46875 282.066406 C 571.035156 284.714844 574.539062 287.449219 577.972656 290.265625 C 581.40625 293.085938 584.769531 295.988281 588.0625 298.96875 C 591.355469 301.953125 594.570312 305.015625 597.714844 308.160156 C 600.855469 311.300781 603.917969 314.519531 606.902344 317.8125 C 609.886719 321.101562 612.785156 324.46875 615.605469 327.902344 C 618.425781 331.335938 621.15625 334.839844 623.804688 338.40625 C 626.449219 341.976562 629.007812 345.609375 631.476562 349.300781 C 633.945312 352.996094 636.320312 356.75 638.605469 360.5625 C 640.890625 364.371094 643.078125 368.238281 645.175781 372.15625 C 647.269531 376.074219 649.265625 380.042969 651.164062 384.058594 C 653.066406 388.078125 654.863281 392.136719 656.566406 396.242188 C 658.265625 400.347656 659.863281 404.492188 661.363281 408.675781 C 662.859375 412.859375 664.25 417.078125 665.542969 421.328125 C 666.832031 425.582031 668.015625 429.863281 669.09375 434.171875 C 670.175781 438.484375 671.148438 442.816406 672.015625 447.175781 C 672.882812 451.53125 673.640625 455.910156 674.292969 460.304688 C 674.945312 464.699219 675.488281 469.109375 675.925781 473.53125 C 676.359375 477.953125 676.6875 482.382812 676.90625 486.820312 C 677.121094 491.257812 677.230469 495.699219 677.230469 500.144531 L 677.230469 500.226562 C 677.230469 504.671875 677.121094 509.113281 676.90625 513.550781 C 676.6875 517.988281 676.359375 522.417969 675.925781 526.839844 C 675.488281 531.261719 674.945312 535.671875 674.292969 540.066406 C 673.640625 544.460938 672.882812 548.835938 672.015625 553.195312 C 671.148438 557.554688 670.175781 561.886719 669.09375 566.199219 C 668.015625 570.507812 666.832031 574.789062 665.542969 579.042969 C 664.25 583.292969 662.859375 587.511719 661.363281 591.695312 C 659.863281 595.878906 658.265625 600.023438 656.566406 604.128906 C 654.863281 608.234375 653.066406 612.292969 651.164062 616.3125 C 649.265625 620.328125 647.269531 624.296875 645.175781 628.214844 C 643.078125 632.132812 640.890625 636 638.605469 639.808594 C 636.320312 643.621094 633.945312 647.375 631.476562 651.066406 C 629.007812 654.761719 626.449219 658.394531 623.804688 661.964844 C 621.15625 665.53125 618.425781 669.035156 615.605469 672.46875 C 612.785156 675.902344 609.886719 679.269531 606.902344 682.558594 C 603.917969 685.851562 600.855469 689.070312 597.714844 692.210938 C 594.570312 695.351562 591.355469 698.417969 588.0625 701.398438 C 584.769531 704.382812 581.40625 707.285156 577.972656 710.105469 C 574.539062 712.921875 571.035156 715.65625 567.46875 718.304688 C 563.898438 720.949219 560.265625 723.507812 556.574219 725.976562 C 552.878906 728.445312 549.125 730.820312 545.3125 733.105469 C 541.503906 735.390625 537.636719 737.578125 533.71875 739.675781 C 529.800781 741.769531 525.832031 743.765625 521.816406 745.667969 C 517.800781 747.566406 513.738281 749.367188 509.636719 751.066406 C 505.53125 752.765625 501.386719 754.367188 497.203125 755.863281 C 493.019531 757.359375 488.800781 758.753906 484.550781 760.042969 C 480.296875 761.332031 476.015625 762.515625 471.707031 763.597656 C 467.398438 764.675781 463.0625 765.648438 458.703125 766.515625 C 454.347656 767.382812 449.972656 768.144531 445.574219 768.796875 C 441.179688 769.445312 436.773438 769.992188 432.351562 770.425781 C 427.929688 770.863281 423.5 771.1875 419.0625 771.40625 C 414.625 771.625 410.183594 771.734375 405.738281 771.734375 L 403.96875 771.734375 C 399.523438 771.734375 395.085938 771.625 390.648438 771.40625 C 386.210938 771.1875 381.777344 770.863281 377.359375 770.425781 C 372.9375 769.992188 368.527344 769.445312 364.132812 768.796875 C 359.738281 768.144531 355.359375 767.382812 351.003906 766.515625 C 346.644531 765.648438 342.3125 764.675781 338 763.597656 C 333.691406 762.515625 329.410156 761.332031 325.160156 760.042969 C 320.90625 758.753906 316.6875 757.359375 312.503906 755.863281 C 308.320312 754.367188 304.175781 752.765625 300.074219 751.066406 C 295.96875 749.367188 291.90625 747.566406 287.890625 745.667969 C 283.875 743.765625 279.90625 741.769531 275.988281 739.675781 C 272.070312 737.578125 268.203125 735.390625 264.394531 733.105469 C 260.582031 730.820312 256.828125 728.445312 253.136719 725.976562 C 249.441406 723.507812 245.808594 720.949219 242.242188 718.304688 C 238.671875 715.65625 235.171875 712.921875 231.734375 710.105469 C 228.300781 707.285156 224.9375 704.382812 221.644531 701.398438 C 218.351562 698.417969 215.136719 695.351562 211.996094 692.210938 C 208.851562 689.070312 205.789062 685.851562 202.804688 682.558594 C 199.820312 679.269531 196.921875 675.902344 194.101562 672.46875 C 191.285156 669.035156 188.550781 665.53125 185.902344 661.964844 C 183.257812 658.394531 180.699219 654.761719 178.230469 651.066406 C 175.761719 647.375 173.386719 643.621094 171.101562 639.808594 C 168.816406 636 166.628906 632.132812 164.535156 628.214844 C 162.4375 624.296875 160.441406 620.328125 158.542969 616.3125 C 156.644531 612.292969 154.84375 608.234375 153.140625 604.128906 C 151.441406 600.023438 149.84375 595.878906 148.347656 591.695312 C 146.851562 587.511719 145.457031 583.292969 144.167969 579.042969 C 142.875 574.789062 141.691406 570.507812 140.613281 566.199219 C 139.53125 561.886719 138.558594 557.554688 137.691406 553.195312 C 136.824219 548.835938 136.066406 544.460938 135.414062 540.066406 C 134.761719 535.671875 134.21875 531.261719 133.785156 526.839844 C 133.347656 522.417969 133.019531 517.988281 132.804688 513.550781 C 132.585938 509.113281 132.476562 504.671875 132.476562 500.226562 L 132.476562 500.144531 C 132.476562 495.699219 132.585938 491.257812 132.804688 486.820312 C 133.019531 482.382812 133.347656 477.953125 133.785156 473.53125 C 134.21875 469.109375 134.761719 464.699219 135.414062 460.304688 C 136.066406 455.910156 136.824219 451.53125 137.691406 447.175781 C 138.558594 442.816406 139.53125 438.484375 140.613281 434.171875 C 141.691406 429.863281 142.875 425.582031 144.167969 421.328125 C 145.457031 417.078125 146.851562 412.859375 148.347656 408.675781 C 149.84375 404.492188 151.441406 400.347656 153.140625 396.242188 C 154.84375 392.136719 156.644531 388.078125 158.542969 384.058594 C 160.441406 380.042969 162.4375 376.074219 164.535156 372.15625 C 166.628906 368.238281 168.816406 364.371094 171.101562 360.5625 C 173.386719 356.75 175.761719 352.996094 178.230469 349.300781 C 180.699219 345.609375 183.257812 341.976562 185.902344 338.40625 C 188.550781 334.839844 191.285156 331.335938 194.101562 327.902344 C 196.921875 324.46875 199.820312 321.101562 202.804688 317.8125 C 205.789062 314.519531 208.851562 311.300781 211.996094 308.160156 C 215.136719 305.015625 218.351562 301.953125 221.644531 298.96875 C 224.9375 295.988281 228.300781 293.085938 231.734375 290.265625 C 235.171875 287.449219 238.671875 284.714844 242.242188 282.066406 C 245.808594 279.421875 249.441406 276.863281 253.136719 274.394531 C 256.828125 271.925781 260.582031 269.550781 264.394531 267.265625 C 268.203125 264.980469 272.070312 262.789062 275.988281 260.695312 C 279.90625 258.601562 283.875 256.605469 287.890625 254.703125 C 291.90625 252.804688 295.96875 251.003906 300.074219 249.304688 C 304.175781 247.605469 308.320312 246.003906 312.503906 244.507812 C 316.6875 243.011719 320.90625 241.617188 325.160156 240.328125 C 329.410156 239.039062 333.691406 237.851562 338 236.773438 C 342.3125 235.695312 346.644531 234.722656 351.003906 233.855469 C 355.359375 232.988281 359.738281 232.226562 364.132812 231.574219 C 368.527344 230.925781 372.9375 230.378906 377.359375 229.945312 C 381.777344 229.507812 386.210938 229.183594 390.648438 228.964844 C 395.085938 228.746094 399.523438 228.636719 403.96875 228.636719 Z M 403.96875 228.636719 " fill-opacity="1" fill-rule="nonzero"/><path fill="#c5baa8" d="M 360.28125 670.4375 C 360.703125 670.265625 362.304688 669.59375 363.402344 668.074219 C 364.664062 666.386719 364.75 664.449219 364.75 663.773438 C 365.171875 656.097656 357.074219 601.355469 355.980469 594.019531 C 355.050781 587.523438 354.207031 579.765625 351.847656 565.003906 C 350.582031 557.328125 349.992188 553.449219 349.316406 550.667969 C 347.714844 543.664062 344.847656 528.230469 334.726562 514.652344 C 326.710938 503.9375 322.832031 501.324219 322.832031 501.324219 C 319.796875 498.792969 317.6875 497.527344 316.421875 494.40625 C 315.074219 490.949219 314.90625 485.550781 317.6875 482.09375 C 317.6875 482.09375 317.6875 482.09375 317.855469 481.925781 C 326.882812 471.042969 349.738281 476.359375 360.195312 478.71875 C 377.230469 482.597656 376.8125 486.140625 405.066406 494.914062 C 416.871094 498.625 427.667969 501.324219 438.296875 497.105469 C 441.078125 496.011719 446.390625 493.816406 449.257812 488.25 C 451.707031 483.527344 451.789062 477.792969 449.933594 473.660156 C 447.066406 466.996094 439.222656 464.128906 423.28125 460.921875 C 401.605469 456.535156 385.496094 453.332031 361.207031 455.273438 C 346.871094 456.453125 337.253906 457.296875 325.953125 463.199219 C 320.640625 465.984375 310.519531 471.382812 303.601562 482.9375 C 297.785156 492.636719 297.191406 501.832031 296.773438 509.84375 C 295.929688 523.339844 298.628906 533.375 303.097656 549.824219 C 306.472656 562.390625 310.351562 572.257812 312.710938 578.246094 C 315.578125 585.5 317.011719 588.367188 321.0625 597.5625 C 324.855469 606.164062 330.339844 619.070312 339.109375 640.070312 C 339.109375 640.070312 354.207031 672.039062 360.109375 670.265625 Z M 360.28125 670.4375 " fill-opacity="1" fill-rule="nonzero"/><path fill="#c5baa8" d="M 385.582031 418.667969 C 380.4375 417.824219 373.859375 416.726562 366.015625 417.824219 C 360.28125 418.667969 354.628906 419.507812 351.675781 423.644531 C 349.398438 426.847656 349.398438 431.316406 351.507812 435.113281 C 352.4375 436.714844 354.882812 440.175781 366.605469 444.980469 C 373.4375 447.847656 380.691406 450.042969 391.738281 452.152344 C 403.460938 454.429688 411.726562 456.03125 422.777344 455.863281 C 438.378906 455.695312 445.464844 452.234375 447.824219 450.96875 C 450.691406 449.453125 457.101562 445.992188 455.921875 441.945312 C 455.078125 438.992188 450.777344 437.136719 444.367188 434.523438 C 438.296875 431.992188 434.414062 431.148438 422.015625 428.027344 C 417.632812 426.933594 411.558594 425.414062 404.894531 423.640625 C 390.726562 419.929688 390.304688 419.425781 385.414062 418.582031 Z M 385.582031 418.667969 " fill-opacity="1" fill-rule="nonzero"/><path fill="#c5baa8" d="M 423.789062 419.59375 C 430.199219 418.328125 434.078125 414.027344 435.765625 412.257812 C 436.691406 411.242188 439.054688 408.460938 439.980469 401.460938 C 440.234375 399.773438 440.65625 395.21875 439.222656 389.398438 C 438.210938 385.351562 436.859375 383.242188 433.570312 381.554688 C 431.714844 380.542969 429.4375 379.363281 425.304688 379.613281 C 419.570312 379.953125 414.257812 382.734375 412.570312 383.664062 C 410.292969 384.84375 406.5 387.207031 403.800781 392.183594 C 401.183594 397.160156 401.859375 400.53125 403.039062 405.929688 C 403.292969 407.109375 404.472656 412.085938 409.199219 416.472656 C 410.378906 417.652344 412.488281 419.339844 417.210938 419.761719 C 418.476562 419.933594 420.921875 420.101562 423.703125 419.59375 Z M 423.789062 419.59375 " fill-opacity="1" fill-rule="nonzero"/><path fill="#ece3d1" d="M 450.1875 329.09375 C 449.765625 329.261719 448.164062 329.933594 447.066406 331.453125 C 445.800781 333.140625 445.71875 335.082031 445.71875 335.753906 C 445.296875 343.347656 453.390625 398 454.488281 405.339844 C 455.417969 411.835938 456.175781 419.59375 458.621094 434.269531 C 459.886719 441.945312 460.476562 445.742188 461.152344 448.523438 C 462.753906 455.523438 465.621094 470.875 475.65625 484.457031 C 483.585938 495.167969 487.550781 497.699219 487.550781 497.699219 C 490.585938 500.226562 492.695312 501.492188 493.875 504.613281 C 495.226562 508.070312 495.394531 513.46875 492.609375 516.929688 C 492.609375 516.929688 492.609375 516.929688 492.441406 517.097656 C 483.417969 527.976562 460.5625 522.664062 450.1875 520.300781 C 433.234375 516.421875 433.65625 512.964844 405.402344 504.109375 C 393.59375 500.398438 382.882812 497.699219 372.171875 501.914062 C 369.390625 503.011719 364.160156 505.203125 361.207031 510.769531 C 358.761719 515.496094 358.675781 521.230469 360.53125 525.363281 C 363.402344 532.027344 371.246094 534.808594 387.101562 538.015625 C 408.691406 542.402344 424.800781 545.605469 449.007812 543.664062 C 463.261719 542.484375 472.875 541.640625 484.175781 535.738281 C 489.488281 532.953125 499.609375 527.554688 506.441406 516.085938 C 512.261719 506.386719 512.769531 497.277344 513.273438 489.261719 C 514.117188 475.769531 511.417969 465.816406 506.949219 449.367188 C 503.574219 436.886719 499.777344 427.015625 497.417969 421.027344 C 494.550781 413.773438 493.117188 410.90625 489.066406 401.714844 C 485.355469 393.109375 479.789062 380.207031 471.101562 359.289062 C 471.101562 359.289062 456.007812 327.40625 450.101562 329.175781 Z M 450.1875 329.09375 " fill-opacity="1" fill-rule="nonzero"/><path fill="#ece3d1" d="M 424.96875 580.269531 C 430.03125 581.113281 436.691406 582.210938 444.453125 581.113281 C 450.1875 580.269531 455.835938 579.425781 458.707031 575.292969 C 460.984375 572.089844 460.984375 567.621094 458.875 563.824219 C 457.945312 562.222656 455.5 558.761719 443.863281 553.957031 C 437.03125 551.085938 429.777344 548.980469 418.8125 546.785156 C 407.171875 544.507812 398.90625 542.90625 387.773438 543.074219 C 372.257812 543.242188 365.085938 546.703125 362.808594 547.96875 C 359.941406 549.484375 353.53125 552.941406 354.714844 556.992188 C 355.558594 559.945312 359.859375 561.800781 366.183594 564.414062 C 372.257812 566.945312 376.136719 567.789062 388.449219 570.824219 C 392.835938 571.921875 398.824219 573.4375 405.488281 575.210938 C 419.65625 578.921875 420.078125 579.425781 424.96875 580.269531 Z M 424.96875 580.269531 " fill-opacity="1" fill-rule="nonzero"/><path fill="#ece3d1" d="M 386.847656 579.34375 C 380.4375 580.609375 376.558594 584.824219 374.871094 586.679688 C 373.941406 587.691406 371.582031 590.476562 370.652344 597.476562 C 370.402344 599.164062 369.980469 603.71875 371.414062 609.453125 C 372.425781 613.503906 373.773438 615.613281 377.0625 617.296875 C 378.917969 618.308594 381.195312 619.40625 385.328125 619.238281 C 391.0625 618.902344 396.378906 616.117188 398.066406 615.191406 C 400.339844 614.007812 404.136719 611.648438 406.75 606.671875 C 409.367188 601.777344 408.691406 598.320312 407.511719 592.921875 C 407.257812 591.742188 406.078125 586.765625 401.355469 582.378906 C 400.171875 581.199219 398.066406 579.511719 393.339844 579.089844 C 392.078125 578.921875 389.714844 578.753906 386.847656 579.257812 Z M 386.847656 579.34375 " fill-opacity="1" fill-rule="nonzero"/></svg>