<?xml version="1.0" standalone="no"?>
<!DOCTYPE svg PUBLIC "-//W3C//DTD SVG 1.1//EN" "http://www.w3.org/Graphics/SVG/1.1/DTD/svg11.dtd">
<svg xmlns="http://www.w3.org/2000/svg" xmlns:xlink="http://www.w3.org/1999/xlink" width="810" zoomAndPan="magnify" viewBox="0 0 810 1012.49997" height="1012.5" preserveAspectRatio="xMidYMid meet" version="1.0"><path fill="#4e5640" d="M 401.398438 234.589844 L 401.566406 234.589844 C 406.027344 234.589844 410.484375 234.699219 414.941406 234.917969 C 419.394531 235.136719 423.84375 235.464844 428.285156 235.902344 C 432.722656 236.339844 437.148438 236.886719 441.5625 237.539062 C 445.976562 238.195312 450.371094 238.957031 454.746094 239.828125 C 459.121094 240.699219 463.472656 241.675781 467.796875 242.757812 C 472.125 243.84375 476.425781 245.03125 480.695312 246.328125 C 484.960938 247.621094 489.199219 249.023438 493.398438 250.523438 C 497.597656 252.027344 501.757812 253.632812 505.878906 255.339844 C 510 257.046875 514.078125 258.855469 518.113281 260.761719 C 522.144531 262.667969 526.128906 264.675781 530.0625 266.777344 C 533.996094 268.882812 537.878906 271.078125 541.703125 273.371094 C 545.53125 275.667969 549.296875 278.050781 553.007812 280.53125 C 556.714844 283.007812 560.363281 285.578125 563.945312 288.234375 C 567.527344 290.894531 571.046875 293.636719 574.492188 296.46875 C 577.941406 299.296875 581.320312 302.210938 584.625 305.207031 C 587.929688 308.203125 591.160156 311.277344 594.316406 314.433594 C 597.46875 317.585938 600.542969 320.816406 603.539062 324.125 C 606.535156 327.429688 609.449219 330.804688 612.277344 334.253906 C 615.109375 337.703125 617.851562 341.21875 620.511719 344.800781 C 623.167969 348.386719 625.734375 352.03125 628.214844 355.742188 C 630.691406 359.453125 633.078125 363.21875 635.371094 367.046875 C 637.664062 370.871094 639.863281 374.753906 641.96875 378.6875 C 644.070312 382.621094 646.074219 386.605469 647.980469 390.640625 C 649.890625 394.671875 651.695312 398.75 653.402344 402.871094 C 655.113281 406.992188 656.714844 411.152344 658.21875 415.355469 C 659.722656 419.554688 661.121094 423.789062 662.417969 428.058594 C 663.710938 432.328125 664.902344 436.628906 665.984375 440.953125 C 667.070312 445.28125 668.046875 449.632812 668.917969 454.007812 C 669.785156 458.386719 670.550781 462.78125 671.203125 467.191406 C 671.859375 471.605469 672.40625 476.03125 672.839844 480.472656 C 673.277344 484.914062 673.605469 489.359375 673.824219 493.816406 C 674.042969 498.273438 674.152344 502.730469 674.152344 507.191406 L 674.152344 507.277344 C 674.152344 511.738281 674.042969 516.195312 673.824219 520.652344 C 673.605469 525.109375 673.277344 529.554688 672.839844 533.996094 C 672.40625 538.433594 671.859375 542.863281 671.203125 547.273438 C 670.550781 551.6875 669.785156 556.082031 668.917969 560.457031 C 668.046875 564.832031 667.070312 569.183594 665.984375 573.511719 C 664.902344 577.839844 663.710938 582.140625 662.417969 586.410156 C 661.121094 590.675781 659.722656 594.914062 658.21875 599.113281 C 656.714844 603.3125 655.113281 607.476562 653.402344 611.597656 C 651.695312 615.71875 649.890625 619.796875 647.984375 623.828125 C 646.074219 627.863281 644.070312 631.84375 641.96875 635.78125 C 639.863281 639.714844 637.664062 643.59375 635.371094 647.421875 C 633.078125 651.25 630.691406 655.015625 628.214844 658.726562 C 625.734375 662.4375 623.167969 666.082031 620.511719 669.664062 C 617.851562 673.25 615.109375 676.765625 612.277344 680.214844 C 609.449219 683.664062 606.535156 687.039062 603.539062 690.34375 C 600.542969 693.652344 597.46875 696.882812 594.316406 700.035156 C 591.160156 703.191406 587.929688 706.265625 584.625 709.261719 C 581.320312 712.257812 577.941406 715.171875 574.492188 718 C 571.046875 720.832031 567.527344 723.574219 563.945312 726.234375 C 560.363281 728.890625 556.714844 731.457031 553.007812 733.9375 C 549.296875 736.414062 545.53125 738.800781 541.703125 741.09375 C 537.878906 743.390625 533.996094 745.585938 530.0625 747.691406 C 526.128906 749.792969 522.144531 751.796875 518.113281 753.707031 C 514.078125 755.613281 510 757.421875 505.878906 759.128906 C 501.757812 760.835938 497.597656 762.441406 493.398438 763.945312 C 489.199219 765.445312 484.960938 766.84375 480.695312 768.140625 C 476.425781 769.4375 472.125 770.625 467.800781 771.710938 C 463.472656 772.792969 459.121094 773.769531 454.746094 774.640625 C 450.371094 775.511719 445.976562 776.273438 441.5625 776.929688 C 437.148438 777.582031 432.722656 778.128906 428.285156 778.566406 C 423.84375 779.003906 419.394531 779.332031 414.941406 779.550781 C 410.484375 779.769531 406.027344 779.878906 401.566406 779.878906 L 401.398438 779.878906 C 396.933594 779.878906 392.476562 779.769531 388.019531 779.550781 C 383.566406 779.332031 379.117188 779.003906 374.679688 778.566406 C 370.238281 778.128906 365.8125 777.582031 361.398438 776.929688 C 356.988281 776.273438 352.59375 775.511719 348.21875 774.640625 C 343.839844 773.769531 339.488281 772.792969 335.164062 771.710938 C 330.835938 770.625 326.539062 769.4375 322.269531 768.140625 C 318 766.84375 313.765625 765.445312 309.5625 763.945312 C 305.363281 762.441406 301.203125 760.835938 297.082031 759.128906 C 292.960938 757.421875 288.882812 755.613281 284.851562 753.707031 C 280.816406 751.796875 276.832031 749.792969 272.898438 747.691406 C 268.964844 745.585938 265.085938 743.390625 261.257812 741.09375 C 257.429688 738.800781 253.664062 736.414062 249.953125 733.9375 C 246.246094 731.457031 242.597656 728.890625 239.015625 726.234375 C 235.433594 723.574219 231.917969 720.832031 228.46875 718 C 225.019531 715.171875 221.644531 712.257812 218.335938 709.261719 C 215.03125 706.265625 211.800781 703.191406 208.648438 700.035156 C 205.492188 696.882812 202.417969 693.652344 199.421875 690.34375 C 196.425781 687.039062 193.511719 683.664062 190.683594 680.214844 C 187.851562 676.765625 185.109375 673.25 182.453125 669.664062 C 179.792969 666.082031 177.226562 662.433594 174.746094 658.726562 C 172.269531 655.015625 169.882812 651.25 167.589844 647.421875 C 165.296875 643.59375 163.097656 639.714844 160.996094 635.78125 C 158.890625 631.84375 156.886719 627.863281 154.980469 623.828125 C 153.070312 619.796875 151.265625 615.71875 149.558594 611.597656 C 147.851562 607.476562 146.246094 603.3125 144.742188 599.113281 C 143.238281 594.914062 141.839844 590.675781 140.546875 586.410156 C 139.25 582.140625 138.0625 577.839844 136.976562 573.511719 C 135.894531 569.183594 134.914062 564.832031 134.046875 560.457031 C 133.175781 556.082031 132.414062 551.6875 131.757812 547.273438 C 131.105469 542.863281 130.558594 538.433594 130.121094 533.996094 C 129.683594 529.554688 129.355469 525.109375 129.136719 520.652344 C 128.917969 516.195312 128.808594 511.738281 128.808594 507.277344 L 128.808594 507.191406 C 128.808594 502.730469 128.917969 498.273438 129.136719 493.816406 C 129.355469 489.359375 129.683594 484.914062 130.121094 480.472656 C 130.558594 476.03125 131.105469 471.605469 131.757812 467.191406 C 132.414062 462.78125 133.175781 458.386719 134.046875 454.011719 C 134.914062 449.632812 135.894531 445.28125 136.976562 440.953125 C 138.0625 436.628906 139.25 432.328125 140.546875 428.058594 C 141.839844 423.789062 143.238281 419.554688 144.742188 415.355469 C 146.246094 411.152344 147.851562 406.992188 149.558594 402.871094 C 151.265625 398.75 153.070312 394.671875 154.980469 390.640625 C 156.886719 386.605469 158.890625 382.621094 160.996094 378.6875 C 163.097656 374.753906 165.296875 370.871094 167.589844 367.046875 C 169.882812 363.21875 172.269531 359.453125 174.746094 355.742188 C 177.226562 352.03125 179.792969 348.386719 182.453125 344.804688 C 185.109375 341.21875 187.851562 337.703125 190.683594 334.253906 C 193.511719 330.804688 196.425781 327.429688 199.421875 324.125 C 202.417969 320.816406 205.492188 317.585938 208.648438 314.433594 C 211.800781 311.277344 215.03125 308.203125 218.335938 305.207031 C 221.644531 302.210938 225.019531 299.296875 228.46875 296.46875 C 231.917969 293.636719 235.433594 290.894531 239.015625 288.234375 C 242.597656 285.578125 246.246094 283.007812 249.953125 280.53125 C 253.664062 278.050781 257.429688 275.667969 261.257812 273.371094 C 265.085938 271.078125 268.964844 268.882812 272.898438 266.777344 C 276.832031 264.675781 280.816406 262.667969 284.851562 260.761719 C 288.882812 258.855469 292.960938 257.046875 297.082031 255.339844 C 301.203125 253.632812 305.363281 252.027344 309.5625 250.523438 C 313.765625 249.023438 318 247.621094 322.269531 246.328125 C 326.539062 245.03125 330.835938 243.84375 335.164062 242.757812 C 339.488281 241.675781 343.839844 240.699219 348.21875 239.828125 C 352.59375 238.957031 356.988281 238.195312 361.398438 237.539062 C 365.8125 236.886719 370.238281 236.339844 374.679688 235.902344 C 379.117188 235.464844 383.566406 235.136719 388.019531 234.917969 C 392.476562 234.699219 396.933594 234.589844 401.398438 234.589844 Z M 401.398438 234.589844 " fill-opacity="1" fill-rule="nonzero"/><path fill="#c5baa8" d="M 364.707031 494.539062 C 414.132812 475.730469 408.144531 539.160156 374.746094 555.773438 C 361.839844 563.449219 342.359375 562.605469 333.503906 549.535156 C 320.597656 527.6875 343.875 501.625 364.117188 494.710938 L 364.625 494.539062 Z M 376.261719 498.421875 C 354.417969 489.816406 329.199219 556.195312 358.890625 555.605469 C 376.683594 551.558594 396.589844 511.492188 376.855469 498.671875 L 376.347656 498.421875 Z M 376.261719 498.421875 " fill-opacity="1" fill-rule="nonzero"/><path fill="#c5baa8" d="M 419.277344 501.117188 C 440.191406 479.527344 447.445312 501.117188 451.242188 495.804688 C 453.941406 482.5625 454.023438 468.476562 457.144531 455.152344 C 458.074219 449.667969 460.433594 437.777344 463.21875 450.933594 C 464.144531 456.667969 464.0625 462.910156 464.398438 468.730469 C 465.578125 489.480469 477.808594 549.703125 452.085938 558.472656 C 448.121094 558.558594 444.324219 555.773438 440.445312 557.292969 C 439.519531 557.628906 438.335938 558.050781 437.410156 558.390625 C 418.265625 566.570312 401.648438 551.808594 403.503906 533 C 404.265625 521.277344 410.421875 509.804688 418.601562 501.625 L 419.109375 501.117188 Z M 430.242188 500.105469 C 408.820312 501.371094 413.371094 563.789062 437.832031 552.402344 C 451.074219 542.703125 452.253906 503.058594 430.746094 500.191406 L 430.15625 500.191406 Z M 430.242188 500.105469 " fill-opacity="1" fill-rule="nonzero"/><path fill="#c5baa8" d="M 533.8125 541.015625 C 533.304688 551.558594 511.546875 559.90625 500.75 559.484375 C 478.652344 561.425781 463.976562 545.820312 476.460938 523.554688 C 485.738281 502.890625 512.640625 480.707031 533.304688 497.238281 C 541.738281 505.335938 538.195312 519.335938 525.96875 520.433594 C 511.292969 522.035156 495.351562 519.335938 484.554688 531.316406 C 474.519531 542.363281 488.265625 547.003906 497.964844 545.570312 C 508.425781 544.558594 519.304688 537.472656 529.847656 538.652344 C 531.28125 538.90625 533.050781 539.410156 533.726562 540.507812 L 533.894531 540.929688 Z M 496.195312 516.890625 C 502.351562 517.734375 510.195312 517.230469 516.183594 515.542969 C 520.90625 513.179688 523.859375 506.9375 522.761719 501.710938 C 517.195312 485.9375 498.558594 508.792969 496.027344 516.722656 L 496.28125 516.890625 Z M 496.195312 516.890625 " fill-opacity="1" fill-rule="nonzero"/><path fill="#c5baa8" d="M 356.949219 581.332031 C 360.324219 578.546875 368.757812 572.644531 377.949219 574.753906 C 378.710938 574.921875 379.722656 575.175781 380.648438 575.679688 C 391.023438 580.992188 394.3125 612.792969 378.117188 629.238281 C 369.179688 638.265625 353.152344 641.722656 343.117188 632.867188 C 327.9375 617.769531 341.429688 591.621094 356.527344 581.585938 Z M 367.15625 582.089844 C 347.503906 579.730469 340.925781 639.191406 365.046875 632.445312 C 378.710938 625.359375 386.554688 588.5 367.660156 582.175781 L 367.15625 582.175781 Z M 367.15625 582.089844 " fill-opacity="1" fill-rule="nonzero"/><path fill="#c5baa8" d="M 386.722656 576.1875 C 392.035156 578.96875 390.683594 588.585938 392.203125 606.71875 C 393.804688 625.695312 396.167969 629.660156 398.867188 630.335938 C 400.214844 630.671875 401.480469 630.25 402.410156 629.746094 C 403.421875 629.324219 404.433594 628.984375 405.023438 629.492188 C 406.792969 630.839844 405.023438 638.855469 401.144531 640.457031 C 396.757812 642.3125 390.011719 635.816406 386.972656 629.574219 C 385.117188 625.863281 385.035156 623.082031 384.273438 615.660156 C 382.925781 602.753906 381.996094 599.71875 381.492188 592.886719 C 380.5625 579.476562 381.578125 576.605469 383.261719 575.765625 C 384.695312 575.003906 386.46875 575.933594 386.890625 576.101562 Z M 386.722656 576.1875 " fill-opacity="1" fill-rule="nonzero"/><path fill="#c5baa8" d="M 529.171875 622.324219 C 528.667969 632.527344 507.664062 640.542969 497.207031 640.203125 C 475.871094 642.058594 461.699219 627.046875 473.675781 605.453125 C 482.699219 585.464844 508.679688 564.039062 528.582031 579.980469 C 536.761719 587.824219 533.304688 601.320312 521.496094 602.417969 C 507.242188 603.9375 491.894531 601.320312 481.4375 612.960938 C 471.738281 623.589844 484.976562 628.140625 494.425781 626.792969 C 504.546875 625.78125 515.085938 618.949219 525.292969 620.128906 C 526.640625 620.382812 528.328125 620.890625 529.003906 621.984375 L 529.171875 622.40625 Z M 492.820312 599.042969 C 498.808594 599.800781 506.316406 599.382812 512.136719 597.777344 C 516.691406 595.5 519.558594 589.429688 518.460938 584.367188 C 513.148438 569.101562 495.097656 591.285156 492.570312 598.875 Z M 492.820312 599.042969 " fill-opacity="1" fill-rule="nonzero"/><path fill="#c5baa8" d="M 415.734375 640.289062 C 415.734375 640.289062 416.324219 640.035156 416.664062 639.527344 C 417.082031 639.023438 417.082031 638.433594 417.082031 638.179688 C 417.167969 635.816406 414.722656 619.117188 414.386719 616.925781 C 414.132812 614.902344 413.878906 612.539062 413.121094 608.070312 C 412.699219 605.707031 412.53125 604.527344 412.359375 603.683594 C 411.855469 601.574219 411.011719 596.851562 407.890625 592.71875 C 405.445312 589.429688 404.265625 588.667969 404.265625 588.667969 C 403.335938 587.910156 402.660156 587.488281 402.324219 586.5625 C 401.902344 585.464844 401.820312 583.863281 402.660156 582.765625 C 405.445312 579.476562 412.359375 581.078125 415.566406 581.753906 C 420.796875 582.933594 420.625 584.03125 429.230469 586.730469 C 432.855469 587.824219 436.144531 588.667969 439.351562 587.402344 C 440.191406 587.066406 441.796875 586.390625 442.722656 584.703125 C 443.484375 583.269531 443.484375 581.5 442.976562 580.234375 C 442.132812 578.210938 439.6875 577.367188 434.878906 576.355469 C 428.300781 575.003906 423.324219 573.992188 415.902344 574.667969 C 411.515625 575.003906 408.566406 575.257812 405.191406 577.113281 C 403.589844 577.957031 400.46875 579.644531 398.359375 583.101562 C 396.589844 586.054688 396.421875 588.835938 396.25 591.285156 C 396 595.417969 396.84375 598.453125 398.191406 603.515625 C 399.203125 607.308594 400.382812 610.347656 401.144531 612.203125 C 401.988281 614.394531 402.492188 615.320312 403.671875 618.105469 C 404.855469 620.71875 406.542969 624.683594 409.15625 631.09375 C 409.15625 631.09375 413.792969 640.878906 415.566406 640.289062 Z M 415.734375 640.289062 " fill-opacity="1" fill-rule="nonzero"/><path fill="#ece3d1" d="M 330.214844 659.519531 C 330.71875 659.351562 332.320312 658.675781 333.417969 657.074219 C 334.683594 655.300781 334.851562 653.363281 334.851562 652.601562 C 335.273438 644.675781 326.839844 588.078125 325.828125 580.488281 C 324.898438 573.738281 324.054688 565.726562 321.609375 550.460938 C 320.34375 542.53125 319.671875 538.566406 318.996094 535.617188 C 317.394531 528.363281 314.355469 512.421875 303.898438 498.421875 C 295.632812 487.371094 291.585938 484.671875 291.585938 484.671875 C 288.464844 482.058594 286.273438 480.707031 285.007812 477.503906 C 283.574219 473.875 283.402344 468.308594 286.273438 464.765625 C 286.273438 464.765625 286.273438 464.765625 286.441406 464.597656 C 295.800781 453.378906 319.417969 458.863281 330.214844 461.308594 C 347.839844 465.273438 347.335938 468.984375 376.601562 478.09375 C 388.828125 481.886719 399.960938 484.757812 411.011719 480.371094 C 413.878906 479.273438 419.359375 476.996094 422.398438 471.261719 C 424.925781 466.367188 425.011719 460.378906 423.15625 456.164062 C 420.121094 449.246094 412.023438 446.292969 395.660156 443.003906 C 373.226562 438.449219 356.527344 435.078125 331.476562 437.183594 C 316.71875 438.367188 306.765625 439.292969 295.042969 445.453125 C 289.5625 448.320312 279.101562 453.96875 271.933594 465.863281 C 265.945312 475.898438 265.355469 485.429688 264.847656 493.695312 C 264.007812 507.699219 266.789062 517.988281 271.429688 535.109375 C 274.96875 548.097656 278.933594 558.304688 281.378906 564.546875 C 284.332031 572.054688 285.851562 575.003906 289.984375 584.535156 C 293.863281 593.476562 299.597656 606.804688 308.621094 628.480469 C 308.621094 628.480469 324.308594 661.542969 330.382812 659.6875 Z M 330.214844 659.519531 " fill-opacity="1" fill-rule="nonzero"/><path fill="#ece3d1" d="M 356.441406 399.144531 C 351.128906 398.21875 344.296875 397.121094 336.203125 398.304688 C 330.214844 399.144531 324.394531 399.988281 321.359375 404.292969 C 318.996094 407.664062 318.996094 412.21875 321.1875 416.183594 C 322.199219 417.871094 324.648438 421.414062 336.792969 426.390625 C 343.875 429.339844 351.382812 431.617188 362.769531 433.8125 C 374.828125 436.171875 383.433594 437.777344 394.902344 437.609375 C 411.011719 437.355469 418.433594 433.8125 420.796875 432.546875 C 423.746094 430.945312 430.410156 427.402344 429.230469 423.183594 C 428.386719 420.148438 423.914062 418.207031 417.335938 415.507812 C 411.097656 412.894531 407.046875 412.050781 394.226562 408.847656 C 389.671875 407.664062 383.433594 406.148438 376.515625 404.292969 C 361.839844 400.410156 361.417969 399.90625 356.359375 399.0625 Z M 356.441406 399.144531 " fill-opacity="1" fill-rule="nonzero"/><path fill="#ece3d1" d="M 395.914062 400.160156 C 402.578125 398.894531 406.625 394.421875 408.3125 392.566406 C 409.238281 391.472656 411.6875 388.6875 412.613281 381.433594 C 412.867188 379.746094 413.371094 374.9375 411.855469 368.949219 C 410.757812 364.734375 409.410156 362.625 406.035156 360.769531 C 404.179688 359.757812 401.734375 358.574219 397.515625 358.746094 C 391.613281 359.082031 386.132812 361.949219 384.359375 362.878906 C 382 364.144531 378.117188 366.589844 375.335938 371.734375 C 372.550781 376.878906 373.3125 380.335938 374.492188 385.902344 C 374.746094 387.167969 376.011719 392.230469 380.816406 396.867188 C 382.082031 398.050781 384.273438 399.820312 389.167969 400.328125 C 390.515625 400.496094 392.960938 400.664062 395.914062 400.15625 Z M 395.914062 400.160156 " fill-opacity="1" fill-rule="nonzero"/><path fill="#c5baa8" d="M 456.554688 641.046875 C 453.097656 641.976562 449.722656 637.84375 448.035156 634.972656 C 440.109375 621.984375 446.519531 606.128906 450.820312 592.800781 C 450.398438 592.210938 450.144531 591.621094 450.3125 591.199219 C 451.074219 589.089844 459.421875 589.007812 461.027344 592.210938 C 461.953125 594.066406 458.578125 595.753906 458.578125 599.632812 C 458.578125 608.320312 458.074219 616.925781 458.242188 625.863281 C 457.90625 630.671875 459.929688 636.914062 456.894531 640.792969 L 456.472656 641.046875 Z M 456.554688 641.046875 " fill-opacity="1" fill-rule="nonzero"/><path fill="#c5baa8" d="M 473.84375 577.703125 C 478.144531 576.1875 483.460938 574.246094 486.074219 576.015625 C 487.425781 576.859375 487.84375 578.546875 487.425781 580.066406 C 485.570312 586.898438 465.242188 591.957031 461.53125 592.886719 C 455.457031 594.402344 443.734375 596.765625 437.242188 599.800781 C 436.398438 600.222656 435.890625 600.394531 434.964844 600.816406 C 430.324219 602.753906 426.109375 604.527344 424.167969 603.515625 C 422.988281 602.921875 423.070312 601.488281 423.070312 601.40625 C 423.242188 598.453125 429.566406 595.585938 440.023438 590.945312 C 443.902344 589.257812 453.265625 585.125 473.84375 577.703125 Z M 473.84375 577.703125 " fill-opacity="1" fill-rule="nonzero"/></svg>